<?xml version="1.0" encoding="UTF-8"?>
<!-- Generator: visioncortex VTracer 0.6.12 -->
<svg width="144" height="144" version="1.1" xmlns="http://www.w3.org/2000/svg">
 <path transform="translate(0)" d="m0 0h144v144h-144v-144z" fill="#465FD2"/>
 <path transform="translate(0)" d="m0 0h144v144h-144v-144zm15 28c-0.12 13.21-0.2 26.43-0.26 39.64-0.03 6.13-0.06 12.27-0.12 18.4-0.05 5.92-0.08 11.84-0.09 17.76-0.01 2.26-0.03 4.52-0.06 6.78-0.03 3.16-0.04 6.33-0.04 9.49-0.02 0.93-0.03 1.87-0.05 2.83 0.03 4.57 0.12 6.47 3.03 10.16 3.31 2.48 4.84 3.06 8.89 3.06h2.74c0.99 0 1.99 0 3.01-0.01h3.16c3.47 0 6.93 0 10.39-0.01 2.4 0 4.79-0.01 7.19-0.01 6.32 0 12.63-0.01 18.95-0.02 7.57-0.01 15.14-0.02 22.72-0.02 11.51-0.01 23.03-0.03 34.54-0.05v-105c-3.91-0.02-3.91-0.02-23.67-0.15-4.94-0.03-9.89-0.07-14.83-0.11-7.85-0.06-15.7-0.12-23.55-0.16-6.33-0.04-12.66-0.09-18.99-0.14-2.41-0.02-4.83-0.03-7.24-0.04-3.39-0.02-6.77-0.05-10.15-0.08-0.5 0-0.5 0-3.03-0.01-8.39-0.1-8.39-0.1-12.54-2.31z" fill="#FDFDFE"/>
 <path transform="translate(30.482 7.4324)" d="m0 0h3.19c3.48 0 6.96 0.04 10.44 0.08 2.42 0.01 4.83 0.02 7.24 0.02 6.36 0.02 12.71 0.07 19.06 0.12 6.48 0.06 12.96 0.08 19.44 0.1 12.72 0.06 25.43 0.14 38.15 0.25-0.49 0.76-0.98 1.52-1.48 2.31-1.83 3.23-1.99 5.02-1.52 8.69 1.5 2.25 1.5 2.25 3 4v2c-13.74 0.07-27.47 0.12-41.2 0.15-6.38 0.02-12.76 0.04-19.14 0.07-6.15 0.04-12.3 0.05-18.46 0.06-2.34 0.01-4.69 0.02-7.04 0.03-3.29 0.03-6.58 0.03-9.86 0.03-0.98 0.01-1.95 0.02-2.95 0.03-4.91-0.02-8.43-0.07-12.35-3.37-2.35-3.52-2.58-4.86-2-9 4.27-6.07 8.66-5.69 15.48-5.57z" fill="#22B0D4"/>
 <path transform="translate(69,49)" d="m0 0h1l2 21c9.57 0.33 19.14 0.66 29 1-5.62 10.12-5.62 10.12-8.81 14.63-0.69 0.97-1.37 1.94-2.07 2.95-0.7 0.98-1.4 1.97-2.12 2.98-7.87 11.15-7.87 11.15-10.94 16.15-0.68 1.09-1.36 2.17-2.06 3.29h-1c-0.34-2.73-0.67-5.46-1-8.19-0.1-0.77-0.19-1.54-0.29-2.33-0.09-0.75-0.18-1.5-0.27-2.27-0.09-0.69-0.17-1.38-0.26-2.08-0.2-2.37-0.18-4.75-0.18-7.13h-29c1.38-3.44 2.34-5.75 4.32-8.67 0.46-0.68 0.92-1.36 1.39-2.05 0.49-0.72 0.98-1.43 1.48-2.17 0.51-0.75 1.01-1.49 1.53-2.26 1.61-2.37 3.23-4.73 4.84-7.1 1.09-1.61 2.18-3.21 3.27-4.82 1.04-1.52 2.08-3.05 3.11-4.57 0.49-0.72 0.98-1.45 1.49-2.19 3.45-5.05 3.45-5.05 4.57-6.17z" fill="#CDDEEB"/>
 <path transform="translate(74,93)" d="m0 0 1 3c0.91-0.37 1.81-0.74 2.75-1.12 3.25-0.88 3.25-0.88 5.45 0.07 0.6 0.34 1.19 0.69 1.8 1.05-1.64 2.5-3.29 5-4.94 7.5-0.47 0.72-0.93 1.43-1.42 2.17-1.19 1.79-2.41 3.56-3.64 5.33h-1c-1.21-5.61-1.33-11.28-1-17l1-1z" fill="#CFCBE5"/>
 <path transform="translate(92,72)" d="m0 0h8c-1.75 4.88-1.75 4.88-4 6-1.38-1.29-2.71-2.63-4-4v-2z" fill="#B9E7EC"/>
 <path transform="translate(73,103)" d="m0 0h2v2l4-1-4 7h-1l-1-8z" fill="#CBAFE3"/>
</svg>
