<?xml version="1.0" encoding="UTF-8"?>
<!-- Generator: visioncortex VTracer 0.6.12 -->
<svg width="144" height="144" version="1.1" xmlns="http://www.w3.org/2000/svg">
 <path transform="translate(0)" d="m0 0h144v144h-144v-144z" fill="#FDFDFC"/>
 <path transform="translate(58.312 12.812)" d="m0 0c8.15 2.62 12.72 9.5 17.5 16.25 1.22 1.69 2.45 3.39 3.68 5.08 0.59 0.83 1.19 1.65 1.8 2.5 15.39 21.2 15.39 21.2 19.71 23.36 1.37 0.07 2.75 0.08 4.12 0.06 0.64-0.01 0.64-0.01 3.88-0.06 0.07-0.99 0.15-1.98 0.22-3 0.86-9.26 2.56-15.36 9.66-21.68 3.78-2.36 7.82-1.82 12.12-1.32 3.12 1.12 3.12 1.12 5 3 0.31 3.19 0.31 3.19 0 6h-2c-0.27 0.82-0.54 1.65-0.81 2.5-1.19 3.5-1.19 3.5-2.82 7.12-3.53 9.62-1.06 20.97-0.08 30.93 1.27 13.3 1.28 23.6-7.48 34.44-7.46 8.25-16.03 16-27.44 17.48-6.43 0.16-11.73-0.16-17.37-3.47-0.65-0.37-1.29-0.74-1.96-1.12-5.64-3.44-10.32-7.76-15.1-12.28-3.43-3.24-6.94-6.29-10.63-9.23-4.64-3.72-8.8-7.76-12.95-12.02-2.19-2.18-4.44-4.18-6.8-6.16-3.93-3.4-6.3-6-6.94-11.32 0.38-2.87 0.38-2.87 1.38-4.75 3.27-1.84 6.41-1.83 10-1.12 4.76 2.38 8.31 6.23 12 10 3.31 3.03 6.65 6.01 10 9-2.87-3.73-5.95-7.03-9.31-10.31-3.78-3.73-7.37-7.54-10.8-11.59-3.3-3.67-6.89-7.06-10.44-10.49-3.17-3.38-5.23-6.05-5.89-10.68 0.44-2.93 0.44-2.93 2-5.31 3.49-2.32 5.3-2.31 9.44-1.62 6.06 3.59 10.85 8.71 15.56 13.87 0.62 0.67 1.24 1.34 1.88 2.03 3.75 4.06 7.41 8.19 11 12.39 1.99 2.18 4.17 3.97 6.56 5.71-2.85-4.53-6-8.33-9.69-12.19-4.67-4.96-9.03-10.07-13.29-15.39-1.81-2.16-3.67-4.11-5.71-6.05-4.74-4.64-9.57-9.84-9.94-16.75 0.63-3.62 0.63-3.62 2.25-5.62 3.23-1.36 4.88-1.61 8.38-1 6.15 3.2 10.22 8.44 14.44 13.79 2.94 3.74 6.06 7.31 9.18 10.9 0.28 0.32 0.28 0.32 1.69 1.94 1.56 1.79 3.12 3.58 4.69 5.37 0.79 0.9 1.57 1.8 2.38 2.73 1.54 1.76 3.08 3.51 4.62 5.27 0-2.84-1.24-3.7-3.07-5.88-4.4-5.4-8.62-10.93-12.81-16.5-0.33-0.44-0.33-0.44-2.02-2.66-0.31-0.42-0.31-0.42-1.91-2.55-0.56-0.75-1.13-1.51-1.72-2.28-2.86-4.14-4.1-7.02-3.47-12.13 2.05-3.86 2.88-4.94 7.31-5.19z" fill="#FCCB48"/>
 <path transform="translate(58.312 12.812)" d="m0 0c8.15 2.62 12.72 9.5 17.5 16.25 1.22 1.69 2.45 3.39 3.68 5.08 0.59 0.83 1.19 1.65 1.8 2.5 15.39 21.2 15.39 21.2 19.71 23.36 1.37 0.07 2.75 0.08 4.12 0.06 0.64-0.01 0.64-0.01 3.88-0.06 0.07-0.99 0.15-1.98 0.22-3 0.86-9.26 2.56-15.36 9.66-21.68 3.78-2.36 7.82-1.82 12.12-1.32 3.12 1.12 3.12 1.12 5 3 0.31 3.19 0.31 3.19 0 6h-2c-0.27 0.82-0.54 1.65-0.81 2.5-1.19 3.5-1.19 3.5-2.82 7.12-3.53 9.62-1.06 20.97-0.08 30.93 1.27 13.3 1.28 23.6-7.48 34.44-7.46 8.25-16.03 16-27.44 17.48-6.43 0.16-11.73-0.16-17.37-3.47-0.65-0.37-1.29-0.74-1.96-1.12-5.64-3.44-10.32-7.76-15.1-12.28-3.43-3.24-6.94-6.29-10.63-9.23-4.64-3.72-8.8-7.75-12.95-12.01-2.79-2.79-5.73-5.36-8.77-7.89-1.59-1.47-1.59-1.47-3.59-4.47-0.08-2.33-0.09-4.67 0-7 2 3 2 3 3.37 5.56 1.71 2.56 2.8 3.36 5.63 4.44v2l4 2v2c0.6 0.27 1.19 0.53 1.81 0.81 2.19 1.19 3.6 2.28 5.19 4.19v2c0.71 0.23 1.42 0.46 2.15 0.69 3.43 1.57 5.62 3.6 8.35 6.18 9.64 9.07 9.64 9.07 15.69 11.32 4.8 1.8 4.8 1.8 6.81 2.81 2.55 0.07 5.07 0.09 7.62 0.06 0.36 0 0.36 0 2.14-0.01 1.75-0.02 3.49-0.03 5.24-0.05v-2c0.8-0.75 1.61-1.49 2.43-2.25 2.89-3.1 3.48-4.57 3.57-8.75-0.64-1.35-1.3-2.69-2-4 0.12-2.13 0.12-2.13 1-4 1.33-0.67 2.66-1.34 4-2 0.75-2.13 0.75-2.13 1-4 0.35 0.49 0.7 0.99 1.06 1.5 2.88 2.23 5.41 1.7 8.94 1.5v-2l2-1c1.17-3.52 1.19-6.72 1.19-10.38v-2.13c-0.07-6.61-0.95-13-2.19-19.49-3.08 1.12-5.42 2-7.12 4.91l-1.89 4.29c-0.99 1.8-0.99 1.8-3.49 3.11-0.41 0.11-0.41 0.11-2.5 0.69-0.66 0.51-1.32 1.03-2 1.56-2.37 1.7-4.11 2.14-7 2.44-0.5-0.17-0.5-0.17-3-1-1.38-2.81-1.38-2.81-2-6 1.25-2.13 1.25-2.13 3-4 1.25-2.07 1.25-2.07 2-4l-1-3c-0.33-0.17-0.33-0.17-2-1-1.07-2.15-1.07-2.15-2.13-4.81-0.35-0.88-0.7-1.75-1.07-2.65-0.8-2.54-0.8-2.54-0.8-6.54h-6c0.6 2.35 1.27 4.68 2 7 0.33 0.16 0.33 0.16 2 1 1.29 7.41 1.29 7.41 0 10-3.53 0.32-5.36 0.48-8.25-1.69-1.75-2.31-1.75-2.31-2.56-4.69-1.52-3.34-3.63-4.81-6.45-7.08-2.45-2.17-3.98-4.81-5.74-7.54-1.32-1.03-2.65-2.03-4-3v-2c-0.3-0.03-0.3-0.03-1.81-0.19-3.08-1.14-3.54-3.01-5.19-5.81-1.39-1.79-2.83-3.54-4.31-5.25-0.74-0.87-1.48-1.75-2.24-2.64-2.86-2.47-4.74-2.83-8.45-3.11 0.87 6.72 1.74 10.42 7 15 1.29 1.61 2.56 3.23 3.81 4.87 2.52 3.2 4.99 5.97 8.12 8.56 5.1 4.25 9 9.37 13.07 14.57 0.63 0.76 1.25 1.52 1.9 2.31 0.55 0.68 1.1 1.36 1.66 2.06 0.48 0.59 0.95 1.17 1.44 1.78 1.28 2.38 1.18 4.18 1 6.85-0.83 0.16-0.83 0.16-5 1v-2h2c-2.85-4.53-6-8.33-9.69-12.19-4.67-4.96-9.03-10.07-13.29-15.39-1.81-2.16-3.67-4.11-5.71-6.05-4.74-4.64-9.57-9.84-9.94-16.75 0.63-3.62 0.63-3.62 2.25-5.62 3.23-1.36 4.88-1.61 8.38-1 6.15 3.2 10.22 8.44 14.44 13.79 2.94 3.74 6.06 7.31 9.18 10.9 0.28 0.32 0.28 0.32 1.69 1.94 1.56 1.79 3.12 3.58 4.69 5.37 0.79 0.9 1.57 1.8 2.38 2.73 1.54 1.76 3.08 3.51 4.62 5.27 0-2.84-1.24-3.7-3.07-5.88-4.4-5.4-8.62-10.93-12.81-16.5-0.33-0.44-0.33-0.44-2.02-2.66-0.31-0.42-0.31-0.42-1.91-2.55-0.56-0.75-1.13-1.51-1.72-2.28-2.86-4.14-4.1-7.02-3.47-12.13 2.05-3.86 2.88-4.94 7.31-5.19z" fill="#F9C744"/>
 <path transform="translate(115,62)" d="m0 0c4.67 26.7 4.67 26.7 0 34h-2v2c-6.62 1.12-6.62 1.12-10 0l-2 3h-3c0.11 0.66 0.21 1.33 0.32 2.01 0.99 7.25 0.99 7.25-0.63 11.11-0.56 0.62-1.12 1.24-1.69 1.88h-2v2h-2v2c-18.05 0.5-18.05 0.5-22.58-3.34-3.71-4.34-6.16-9.95-6.42-15.66 0.33-0.64 0.66-1.28 1-1.94 1.52-3.13 0.56-5.66 0-9.06-0.09-3-0.06-6 0-9 0.97-0.12 1.94-0.25 2.94-0.38 1.01-0.2 2.02-0.41 3.06-0.62l1-2h2c-0.03-0.63-0.07-1.25-0.11-1.9-0.02-0.82-0.05-1.63-0.08-2.48-0.03-0.81-0.07-1.62-0.1-2.46 0.09-0.71 0.19-1.42 0.29-2.16 3.85-2.57 5.59-1.83 10-1l-1 12c0.99-1.65 1.98-3.3 3-5l2 4c7.76-0.41 11.56-2.94 17.25-8 1.75-2 1.75-2 3.19-4.62 1.82-2.78 4.08-4.38 7.56-4.38z" fill="#FED153"/>
 <path transform="translate(58.312 12.812)" d="m0 0c8.15 2.62 12.72 9.5 17.5 16.25 1.22 1.69 2.45 3.39 3.68 5.08 0.59 0.83 1.19 1.65 1.8 2.5 15.39 21.2 15.39 21.2 19.71 23.36 1.37 0.07 2.75 0.08 4.12 0.06 0.64-0.01 0.64-0.01 3.88-0.06 0.07-0.99 0.15-1.98 0.22-3 0.66-7.06 1.32-13.16 6.18-18.68 2.12-1.75 3.86-2.32 6.6-2.32l-3 6h-2c-0.18 1.18-0.37 2.36-0.55 3.58-0.26 1.55-0.51 3.11-0.76 4.67-0.12 0.77-0.24 1.55-0.36 2.35-1.24 7.44-1.24 7.44-4.33 10.4h-2c-0.13 0.44-0.13 0.44-0.75 2.69-2.1 5.56-5.03 8.57-10.25 11.31-0.99 0.58-1.98 1.15-3 1.75-3.29 1.37-4.67 1.33-8 0.25-1.19-2.75-1.19-2.75-2-6 1.25-2.13 1.25-2.13 3-4 1.25-2.07 1.25-2.07 2-4l-1-3c-0.33-0.17-0.33-0.17-2-1-1.07-2.15-1.07-2.15-2.13-4.81-0.35-0.88-0.7-1.75-1.07-2.65-0.8-2.54-0.8-2.54-0.8-6.54h-6c0.6 2.35 1.27 4.68 2 7 0.33 0.16 0.33 0.16 2 1 1.29 7.41 1.29 7.41 0 10-3.53 0.32-5.36 0.48-8.25-1.69-1.75-2.31-1.75-2.31-2.56-4.69-1.52-3.34-3.63-4.81-6.45-7.08-2.45-2.17-3.98-4.81-5.74-7.54-1.32-1.03-2.65-2.03-4-3v-2c-0.3-0.03-0.3-0.03-1.81-0.19-3.08-1.14-3.54-3.01-5.19-5.81-1.39-1.79-2.83-3.54-4.31-5.25-0.74-0.87-1.48-1.75-2.24-2.64-2.86-2.47-4.74-2.83-8.45-3.11 0.87 6.72 1.74 10.42 7 15 1.29 1.61 2.56 3.23 3.81 4.87 2.52 3.2 4.99 5.97 8.12 8.56 5.1 4.25 9 9.37 13.07 14.57 0.63 0.76 1.25 1.52 1.9 2.31 0.55 0.68 1.1 1.36 1.66 2.06 0.48 0.59 0.95 1.17 1.44 1.78 1.28 2.38 1.18 4.18 1 6.85-0.83 0.16-0.83 0.16-5 1v-2h2c-2.85-4.53-6-8.33-9.69-12.19-4.67-4.96-9.03-10.07-13.29-15.39-1.81-2.16-3.67-4.11-5.71-6.05-4.74-4.64-9.57-9.84-9.94-16.75 0.63-3.62 0.63-3.62 2.25-5.62 3.23-1.36 4.88-1.61 8.38-1 6.15 3.2 10.22 8.44 14.44 13.79 2.94 3.74 6.06 7.31 9.18 10.9 0.28 0.32 0.28 0.32 1.69 1.94 1.56 1.79 3.12 3.58 4.69 5.37 0.79 0.9 1.57 1.8 2.38 2.73 1.54 1.76 3.08 3.51 4.62 5.27 0-2.84-1.24-3.7-3.07-5.88-4.4-5.4-8.62-10.93-12.81-16.5-0.33-0.44-0.33-0.44-2.02-2.66-0.31-0.42-0.31-0.42-1.91-2.55-0.56-0.75-1.13-1.51-1.72-2.28-2.86-4.14-4.1-7.02-3.47-12.13 2.05-3.86 2.88-4.94 7.31-5.19z" fill="#FAC53E"/>
 <path transform="translate(134,38)" d="m0 0h1c-0.42 5.07-1.6 8.66-4.06 13.11-4.63 9.36-1.63 22.48-0.65 32.44 1.27 13.3 1.29 23.6-7.48 34.45-7.46 8.24-16.03 15.99-27.44 17.47-6.42 0.16-11.73-0.15-17.37-3.47-0.65-0.37-1.29-0.73-1.96-1.11-5.64-3.45-10.31-7.77-15.09-12.29-3.44-3.24-6.94-6.28-10.64-9.22-4.64-3.73-8.8-7.76-12.95-12.02-2.79-2.79-5.73-5.36-8.77-7.89-1.59-1.47-1.59-1.47-3.59-4.47-0.08-2.33-0.09-4.67 0-7 2 3 2 3 3.38 5.56 1.7 2.56 2.79 3.37 5.62 4.44v2l4 2v2c0.6 0.27 1.2 0.54 1.81 0.81 2.19 1.19 3.6 2.29 5.19 4.19v2c0.36 0.12 0.36 0.12 2.17 0.71 3.35 1.53 5.47 3.45 8.14 5.98 0.96 0.89 1.92 1.78 2.9 2.7 0.92 0.86 1.84 1.72 2.79 2.61 2.08 1.87 4.18 3.71 6.3 5.54 1.43 1.23 2.82 2.49 4.2 3.77 3.4 2.3 6.49 2.87 10.5 3.69v2l16-2v-2c1.38-1.62 1.38-1.62 3-3h2v-2c2.64-1.78 4.97-2.99 8-4 0.7-1.31 1.36-2.65 2-4 2-2.75 2-2.75 4-5h2v-2c2.38-2.63 2.38-2.63 5-5h2c-0.01-1.23-0.02-2.46-0.03-3.73-0.04-4.59-0.06-9.18-0.08-13.77-0.01-1.99-0.02-3.97-0.04-5.95-0.03-2.86-0.04-5.72-0.05-8.58-0.01-0.88-0.02-1.76-0.03-2.66 0-5.44 0.58-10.11 2.23-15.31l2-2c0.57-1.33 1.09-2.69 1.56-4.06 1.34-3.84 1.34-3.84 2.44-4.94z" fill="#D89220"/>
 <path transform="translate(24,46)" d="m0 0c0.25 0.54 0.5 1.07 0.75 1.62 2.84 5.41 4.95 8.32 10.46 11.13 2.94 2.05 4.45 4.97 6.3 8 1.45 2.19 2.96 3.88 4.87 5.69 0.86 0.84 1.73 1.69 2.62 2.56v2h3c2.19 2.34 2.19 2.34 4.56 5.38 4.39 5.57 4.39 5.57 6.44 7.62 0.19 2.56 0.19 2.56 0 5-1 1-1 1-3.62 1.44-4.19-0.55-5.72-2.06-8.67-4.93-2.86-2.52-4.88-3.51-8.71-3.51 0.75 4.75 0.75 4.75 3 7 0.66 0.1 1.32 0.21 2 0.31 0.66 0.23 1.32 0.46 2 0.69 0.31 0.78 0.62 1.57 0.94 2.38 1.34 3.32 2.99 3.93 6.06 5.62v2h5c0.43 0.93 0.87 1.86 1.31 2.81 1.41 2.66 2.45 4.27 4.69 6.19-0.16 0.5-0.16 0.5-1 3-0.42-0.37-0.85-0.75-1.28-1.13-1.95-1.71-3.9-3.42-5.84-5.12-0.67-0.59-1.34-1.17-2.02-1.78-2.97-2.59-5.88-5.07-9.2-7.21-3.24-2.14-5.21-4.75-7.66-7.76-1.08-0.94-2.19-1.86-3.31-2.75-0.89-0.74-1.78-1.48-2.69-2.25v-2c-0.76-0.23-1.53-0.45-2.31-0.69-3.24-1.58-4.11-3.14-5.69-6.31l-2 2c-0.36-5.33-0.36-5.33 1-7.88 3.27-1.83 6.42-1.83 10-1.12 4.77 2.38 8.32 6.23 12 10 3.31 3.03 6.65 6.02 10 9-2.87-3.73-5.95-7.03-9.31-10.31-3.78-3.72-7.36-7.54-10.8-11.58-3.34-3.73-6.95-7.19-10.53-10.69-3.12-3.2-4.33-4.57-4.48-9.11 0.04-1.09 0.08-2.18 0.12-3.31h2v-2z" fill="#F9C130"/>
 <path transform="translate(39,20)" d="m0 0c6.15 3.2 10.22 8.45 14.44 13.8 2.95 3.73 6.06 7.3 9.18 10.89 0.28 0.32 0.28 0.32 1.69 1.94 1.56 1.79 3.13 3.58 4.69 5.37 0.79 0.9 1.58 1.8 2.39 2.73 1.53 1.76 3.07 3.52 4.61 5.27 0-2.84-1.24-3.7-3.06-5.88-4.38-5.39-8.66-10.85-12.88-16.37-0.67-0.86-1.35-1.73-2.04-2.62-5.89-7.73-5.89-7.73-6.02-13.13 3.59 3.49 6.8 7.14 10 11 0.32 0.3 0.32 0.3 1.93 1.84 2.27 2.37 3.86 4.8 5.57 7.6 6.16 10.06 6.16 10.06 9.69 11.37 1.81 1.19 1.81 1.19 2.32 3.01 0.78 5.6 0.78 5.6-0.51 8.18-3.53 0.32-5.36 0.48-8.25-1.69-1.75-2.31-1.75-2.31-2.56-4.69-1.52-3.34-3.63-4.81-6.45-7.07-2.44-2.18-3.98-4.82-5.74-7.55-1.32-1.02-2.64-2.03-4-3v-2c-0.3-0.03-0.3-0.03-1.81-0.19-3.08-1.14-3.54-3.01-5.19-5.81-1.39-1.79-2.83-3.54-4.31-5.25-0.74-0.87-1.48-1.74-2.24-2.64-2.86-2.46-4.74-2.83-8.45-3.11 0.87 6.72 1.74 10.43 7 15 1.29 1.61 2.56 3.24 3.81 4.88 2.52 3.2 4.99 5.96 8.13 8.56 5.09 4.24 9 9.36 13.06 14.56 0.63 0.76 1.26 1.52 1.9 2.31 0.55 0.68 1.1 1.36 1.66 2.07 0.48 0.58 0.95 1.17 1.44 1.77 1.29 2.38 1.18 4.19 1 6.85-0.83 0.16-0.83 0.16-5 1v-2h2c-2.85-4.53-6-8.33-9.69-12.19-4.67-4.96-9.03-10.07-13.29-15.39-1.8-2.16-3.67-4.1-5.71-6.04-4.74-4.65-9.57-9.84-9.93-16.76 0.62-3.62 0.62-3.62 2.24-5.62 3.24-1.36 4.88-1.61 8.38-1z" fill="#EEB332"/>
 <path transform="translate(32,43)" d="m0 0c6.07 3.59 10.85 8.71 15.56 13.88 0.62 0.66 1.24 1.33 1.88 2.02 3.74 4.05 7.39 8.17 11 12.34 1.56 1.76 1.56 1.76 3.26 3.3 1.3 1.46 1.3 1.46 1.3 4.46l4 1c-6.32 0.49-6.32 0.49-9.44-1.75-1.56-2.25-1.56-2.25-1.56-6.25h-5c-0.33 0.83-0.33 0.83-2 5-2 0-2 0-3.55-1.5-10.45-12.21-10.45-12.21-10.45-15.5-0.72-0.25-1.44-0.5-2.19-0.75-5.69-2.53-8.35-5.56-10.81-11.25h-2v5h-1c-0.32-3.5-0.4-5.4 1.56-8.38 3.49-2.32 5.3-2.31 9.44-1.62z" fill="#FCC842"/>
 <path transform="translate(32,22)" d="m0 0c2.56-0.44 2.56-0.44 6 0 2.68 2.03 4.81 4.46 7 7 0.25 0.28 0.25 0.28 1.52 1.7 2.1 2.41 3.46 4.24 4.48 7.3 0.99 0.33 1.98 0.66 3 1v2c0.58 0.23 1.16 0.45 1.75 0.69 2.85 1.66 4.37 3.63 6.25 6.31v2c0.56 0.23 1.11 0.45 1.69 0.69 2.94 1.67 4.99 3.86 7.31 6.31-0.16 0.33-0.16 0.33-1 2l-2-2c-2.62-0.12-2.62-0.12-5 0l-1 6c-2.26-2.17-4.29-4.36-6.25-6.81-2.01-2.47-4.18-4.46-6.63-6.5-4.34-3.71-8-7.9-11.12-12.69v-2c-0.62-0.27-1.24-0.54-1.88-0.81-2.12-1.19-2.12-1.19-4.12-4.19-0.26-2.69-0.09-5.29 0-8z" fill="#FBC334"/>
 <path transform="translate(130,45)" d="m0 0c0 3 0 3-2 6-1.18 5-1.11 9.91-1.06 15.01 0 0.85 0.01 1.7 0.01 2.58 0.01 2.7 0.03 5.4 0.05 8.1 0.03 3.56 0.05 7.13 0.06 10.7 0.01 0.82 0.02 1.63 0.03 2.48 0.02 5.13 0.01 7.91-3.53 11.82-2.56 2.31-2.56 2.31-4.56 2.31v2h-2c-0.25 0.56-0.5 1.11-0.75 1.69-2.55 4.71-5.85 8.26-10.25 11.31h-3v2h-2l-1 3h-2v2c-5.57 1.59-10.21 2.21-16 2v-2h11v-2h2l1-3c1.49-1.39 1.49-1.39 3.31-2.81 2.51-2.05 3.86-3.46 5.63-6.25 3.03-4.32 7.23-6.78 12.07-8.77 3.12-1.84 3.49-4.1 4.48-7.45 0.96-5.08 0.59-10.09 0.26-15.22-0.05-1.1-0.11-2.19-0.16-3.32-0.43-8.02-0.43-8.02-1.59-9.18-0.07-2.35-0.08-4.71-0.06-7.06 0.01-1.29 0.02-2.58 0.02-3.91 0.02-1 0.03-2 0.04-3.03h2c0.29-0.95 0.58-1.9 0.88-2.88 1.12-3.12 1.12-3.12 3.12-5.12 2.12-0.62 2.12-0.62 4-1z" fill="#F1B623"/>
 <path transform="translate(119,54)" d="m0 0h1c0.06 1 0.12 2 0.18 3.03 0.09 1.29 0.17 2.58 0.26 3.91 0.08 1.29 0.16 2.57 0.24 3.9 0.32 3.16 0.32 3.16 1.32 4.16 0.47 3.82 0.61 7.66 0.81 11.5 0.08 1.06 0.16 2.13 0.23 3.23 0.36 6.98-0.21 12.31-4.04 18.27-1.96 2.09-1.96 2.09-3.94 3.38-0.69 0.47-1.39 0.94-2.1 1.42-1.55 0.95-3.12 1.83-4.71 2.7-2.98 1.99-4.29 4.52-6.25 7.5-1.92 1.78-3.95 3.36-6 5l-1 2h-2v2c-17.33 0.75-17.33 0.75-23-4-1.94-2.25-1.94-2.25-3-4 1.46 0.48 2.92 0.96 4.38 1.44 0.81 0.26 1.62 0.53 2.46 0.81 2.16 0.75 2.16 0.75 4.16 1.75 2.55 0.07 5.07 0.09 7.62 0.06 0.36 0 0.36 0 2.15-0.01 1.74-0.01 3.49-0.03 5.23-0.05v-2c0.8-0.74 1.61-1.48 2.44-2.25 2.89-3.1 3.47-4.56 3.56-8.75-0.63-1.35-1.3-2.68-2-4 0.44-2.12 0.44-2.12 1-4 1.04 0.05 2.07 0.09 3.14 0.14 1.37 0.04 2.74 0.07 4.11 0.11 0.68 0.03 1.36 0.07 2.07 0.1 3.45 0.07 5.31-0.07 8.1-2.18 1.58-2.17 1.58-2.17 2.58-5.17h2c-0.14-3.25-0.29-6.5-0.44-9.75-0.04-0.92-0.08-1.84-0.12-2.79-0.04-0.89-0.08-1.78-0.12-2.69-0.02-0.41-0.02-0.41-0.11-2.48-0.2-2.2-0.67-4.16-1.21-6.29-0.09-2.57-0.14-5.11-0.12-7.69-0.01-0.34-0.01-0.34-0.02-2.09 0.01-5.09 0.01-5.09 1.14-6.22z" fill="#FDC738"/>
 <path transform="translate(42,87)" d="m0 0c4.63 0.86 7.96 3.07 11.44 6.19 3.09 2.19 4.85 2.16 8.56 1.81l1-5h2c0.22 1.41 0.43 2.83 0.62 4.25 0.06 0.39 0.06 0.39 0.36 2.39 0.02 2.36 0.02 2.36-1.03 4.41-0.95 1.95-0.95 1.95-0.56 3.88 0.28 0.64 0.57 1.28 0.86 1.95 0.29 0.68 0.58 1.37 0.88 2.08 0.29 0.67 0.57 1.35 0.87 2.04 0.68 2 1.35 4 2 6 7.64 1.78 15.18 2.53 23 3v-2h2v-2l3-2c1.19-3.12 1.19-3.12 2-6 0.75 1.56 0.75 1.56 1 4-1.02 2.55-2.27 4.86-4 7-0.99 0.33-1.98 0.66-3 1v2c-5.01 2.51-12.57 1.75-17.79 0.14-2.14-0.96-4.18-1.98-6.21-3.14l-2-1c-0.62-2.56-0.62-2.56-1-5-0.99-0.33-1.98-0.66-3-1-0.29-0.83-0.58-1.65-0.88-2.5-0.37-0.83-0.74-1.65-1.12-2.5-2.44-0.62-2.44-0.62-5-1-1.56-1.31-1.56-1.31-3-3-0.72-0.66-1.44-1.32-2.19-2-1.81-2-1.81-2-1.81-5-0.76-0.1-1.53-0.21-2.31-0.31-2.91-0.75-4.07-1.17-5.69-3.69 0.31-2.69 0.31-2.69 1-5z" fill="#FDC839"/>
 <path transform="translate(134,38)" d="m0 0h1c-0.42 5.07-1.6 8.66-4.06 13.11-1.67 3.37-2.06 6.46-2.02 10.2 0 0.84 0.01 1.68 0.02 2.55 0.01 0.9 0.02 1.8 0.03 2.73 0.02 1.92 0.03 3.83 0.04 5.75 0.02 3.02 0.05 6.04 0.09 9.06 0.03 2.91 0.04 5.83 0.06 8.75 0.01 0.9 0.03 1.79 0.04 2.72 0.02 4.76-0.21 8.7-2.2 13.13-1.88 1.4-1.88 1.4-4.12 2.38-4.46 2.22-7.36 4.89-10.76 8.48-3.7 3.74-7.74 7.22-12.12 10.14h-3v2c-7.35 2.45-16.07 1.41-23-2-0.99-1.32-1.98-2.64-3-4 3.63 0.99 7.26 1.98 11 3v2l16-2v-2c1.38-1.62 1.38-1.62 3-3h2v-2c2.64-1.78 4.97-2.99 8-4 0.7-1.31 1.36-2.65 2-4 2-2.75 2-2.75 4-5h2v-2c2.38-2.62 2.38-2.62 5-5h2c-0.01-0.62-0.01-0.62-0.03-3.73-0.04-4.59-0.06-9.18-0.08-13.77-0.01-1.99-0.02-3.97-0.04-5.95-0.03-2.86-0.04-5.72-0.05-8.58-0.01-0.88-0.02-1.76-0.03-2.66 0-5.44 0.58-10.11 2.23-15.31l2-2c0.57-1.33 1.09-2.69 1.56-4.06 1.34-3.84 1.34-3.84 2.44-4.94z" fill="#E7A617"/>
 <path transform="translate(24,46)" d="m0 0c0.25 0.54 0.5 1.07 0.75 1.62 2.84 5.41 4.95 8.32 10.46 11.13 2.94 2.05 4.45 4.97 6.3 8 1.45 2.19 2.96 3.88 4.87 5.69 0.86 0.84 1.73 1.69 2.62 2.56v2h3c2.19 2.34 2.19 2.34 4.56 5.38 4.39 5.57 4.39 5.57 6.44 7.62 0.19 2.56 0.19 2.56 0 5-1 1-1 1-3.56 1.06-0.81-0.02-1.61-0.04-2.44-0.06 0.99-0.33 1.98-0.66 3-1v-3c-0.3-0.05-0.3-0.05-1.8-0.32-2.52-0.78-3.57-1.69-5.41-3.56-0.58-0.59-1.16-1.17-1.76-1.78-0.61-0.63-1.22-1.26-1.84-1.9-0.63-0.64-1.26-1.28-1.91-1.94-3.63-3.72-7.14-7.52-10.49-11.49-3.3-3.7-6.89-7.13-10.43-10.59-3.12-3.2-4.33-4.57-4.48-9.11 0.04-1.09 0.08-2.18 0.12-3.31h2v-2z" fill="#EEB12F"/>
 <path transform="translate(64,17)" d="m0 0c4.14 1.53 6.22 4.5 8.75 7.94 0.22 0.29 0.22 0.29 1.33 1.77 2.66 3.54 5.26 7.13 7.86 10.73 3.19 4.41 6.47 8.76 9.81 13.06 0.46 0.6 0.92 1.2 1.39 1.82 5.79 7.4 5.79 7.4 10 7.97 1.95-0.09 3.91-0.19 5.86-0.29 0.07-0.99 0.15-1.98 0.23-3 0.65-7.06 1.31-13.16 6.17-18.68 2.12-1.75 3.86-2.32 6.6-2.32l-3 6h-2c-0.08 0.58-0.08 0.58-0.48 3.54-0.24 1.55-0.47 3.1-0.71 4.65-0.1 0.77-0.2 1.54-0.3 2.33-0.84 5.27-2.1 8.1-6.51 11.48-4.39 0.83-7.25 0.14-11.06-2-4.34-2.97-7.02-6.69-9.94-11-5.35-7.37-5.35-7.37-8.12-10.06-2.16-2.23-3.4-4.55-4.87-7.27-1.35-2.23-3.14-3.87-5.01-5.67l-1-3-2-1c-3-4.5-3-4.5-3-7z" fill="#E8AB35"/>
 <path transform="translate(129,81)" d="m0 0h1c1.14 10.68 2.11 19.87-2 30-0.16-0.33-0.16-0.33-1-2h-2c-0.23 0.74-0.45 1.48-0.69 2.25-1.56 3.28-3.5 4.5-6.31 6.75-0.31 0.85-0.62 1.69-0.94 2.56-1.51 3.47-3.63 4.08-7.06 5.44h-2l-1 3c-2.03 0.7-2.03 0.7-4.5 1.12-4.42 0.8-4.42 0.8-5.5 1.88-2.29 0.15-4.58 0.22-6.88 0.25-0.62 0.01-0.62 0.01-3.8 0.08-3.32-0.33-3.32-0.33-6.32-3.33h17v-2c1-0.51 2-1.03 3.02-1.56 4.47-2.55 7.94-5.92 11.6-9.5 10.22-9.94 10.22-9.94 15.38-9.94 1.03-5.28 1.32-10.51 1.56-15.88 0.02-0.43 0.02-0.43 0.13-2.66 0.11-2.15 0.21-4.31 0.31-6.46z" fill="#DE9408"/>
 <path transform="translate(83,49)" d="m0 0c3.84 3.45 3.84 3.45 4.75 6.5 1.93 3.87 5.38 4.89 9.25 6.5v2h12c-4.35 9.69-4.35 9.69-7.55 11.22-0.81 0.26-1.62 0.52-2.45 0.78-0.33 0.26-0.33 0.26-2 1.56-2.37 1.71-4.11 2.14-7 2.44-0.99-0.33-1.98-0.66-3-1-1.38-2.81-1.38-2.81-2-6 1.25-2.12 1.25-2.12 3-4 1.25-2.06 1.25-2.06 2-4l-1-3-2-1c-1.07-2.21-1.07-2.21-2.12-4.94-0.36-0.89-0.71-1.79-1.08-2.71-0.8-2.35-0.8-2.35-0.8-4.35z" fill="#FEC93A"/>
 <path transform="translate(30,24)" d="m0 0h1c0.09 0.41 0.09 0.41 0.56 2.5 1.62 3.95 3.66 6.26 6.52 9.36 1.93 2.15 3.64 4.38 5.36 6.7 2.27 2.98 4.56 5.43 7.44 7.82 5.1 4.26 9.04 9.39 13.12 14.62 0.63 0.76 1.26 1.52 1.9 2.31 0.55 0.68 1.1 1.36 1.66 2.07 0.48 0.58 0.95 1.17 1.44 1.77 1.29 2.38 1.18 4.19 1 6.85-0.83 0.16-0.83 0.16-5 1v-2h2c-2.85-4.53-6-8.33-9.69-12.19-4.66-4.95-9.02-10.07-13.28-15.38-1.83-2.2-3.73-4.19-5.78-6.18-7.95-7.82-7.95-7.82-8.55-12.69-0.01-2.21 0.08-4.36 0.3-6.56z" fill="#D59024"/>
 <path transform="translate(115,70)" d="m0 0c0.06 3.25 0.09 6.5 0.12 9.75 0.02 0.92 0.04 1.84 0.06 2.79 0 0.89 0.01 1.78 0.02 2.69 0.01 0.82 0.02 1.64 0.03 2.48-0.26 2.56-0.82 4.14-2.23 6.29-2.62 0.75-2.62 0.75-5 1-2.59-2.59-3-3.97-3.31-7.69 0.23-5.97 1.26-12.11 4.31-17.31 2.49-1.25 3.41-0.78 6 0z" fill="#FFD665"/>
 <path transform="translate(125,109)" d="m0 0h2c-0.82 7.33-6.75 12.1-12.02 16.8-1.94 1.53-3.9 2.88-5.98 4.2-0.37 0.24-0.37 0.24-2.23 1.47-7.07 4.14-13.72 4.42-21.77 3.53-7.18-2.12-15.19-7.15-20-13v-2c2.48 1.1 4.29 2.24 6.38 4 2.8 2.14 5.24 3.06 8.62 4v2c3.53 1.18 6.4 1.13 10.12 1.12 1.27 0.01 2.53 0.01 3.83 0.01 3.05-0.13 3.05-0.13 4.05-1.13 2.25-0.49 4.51-0.9 6.77-1.3 2.54-0.8 3.47-1.75 5.23-3.7 3-2 3-2 6-2 0.03-0.37 0.03-0.37 0.19-2.25 1.06-3.6 2.86-4.5 5.81-6.75 1.02-1.66 2.02-3.32 3-5z" fill="#C77C1F"/>
 <path transform="translate(116,52)" d="m0 0h3c-0.01 1.25-0.02 2.51-0.04 3.8 0 1.65-0.01 3.3-0.02 4.95-0.01 0.83-0.02 1.65-0.03 2.5 0 0.8 0 1.6-0.01 2.42 0 0.74-0.01 1.47-0.01 2.22 0.11 2.11 0.11 2.11 0.61 4.08 0.57 2.33 0.61 4.4 0.6 6.8-0.01 0.89-0.01 1.77-0.01 2.69-0.01 0.92-0.02 1.84-0.03 2.79 0 0.94-0.01 1.87-0.01 2.84-0.01 2.3-0.03 4.61-0.05 6.91h-2c-0.08 0.58-0.16 1.16-0.25 1.75-1.03 3.09-2.09 4.34-4.75 6.25-4.33 0.73-8.27 0.49-12-2l1-5c0.52 0.5 1.03 0.99 1.56 1.5 3.25 2 5.7 1.72 9.44 1.5v-2c0.33-0.16 0.33-0.16 2-1 1.19-3.57 1.13-6.42 1.12-10.19v-2.13c-0.04-5.08-0.31-10.12-0.68-15.18-0.38-5.38-0.43-10.2 0.56-15.5z" fill="#FFCF4B"/>
 <path transform="translate(119,98)" d="m0 0c0.16 0.33 0.16 0.33 1 2-3.59 3.69-6.92 6.91-11.5 9.31-3.12 2.11-4.44 4.57-6.5 7.69-1.92 1.78-3.95 3.36-6 5l-1 2h-2v2c-17.33 0.75-17.33 0.75-23-4-1.94-2.25-1.94-2.25-3-4 1.46 0.48 2.92 0.96 4.38 1.44 0.81 0.26 1.62 0.53 2.46 0.81 2.16 0.75 2.16 0.75 4.16 1.75 2.55 0.07 5.07 0.09 7.62 0.06 0.71 0 1.42-0.01 2.15-0.01 1.74-0.01 3.49-0.03 5.23-0.05v-2c1.64-1.04 1.64-1.04 3.81-2.19 4.37-2.57 5.28-5.13 7.19-9.81 4.74-3 4.74-3 8-3v-2c1.53-1.29 1.53-1.29 3.5-2.62 0.65-0.45 1.3-0.9 1.97-1.36 0.5-0.33 1.01-0.67 1.53-1.02z" fill="#F8BF2D"/>
 <path transform="translate(76,35)" d="m0 0c2 1 2 1 2.81 3.25 1.47 3.41 3.55 5.15 6.19 7.75 1.54 1.84 3.06 3.69 4.56 5.56 7.65 9.56 7.65 9.56 13.19 11.19 0.8 0.24 1.6 0.48 2.42 0.73 0.61 0.17 1.21 0.34 1.83 0.52v1c-7.75 0.12-7.75 0.12-10-1v-2c-1.09-0.27-2.19-0.54-3.31-0.81-4.89-1.58-4.89-1.58-6.69-4.19-1.53-3.3-2.85-6.55-4-10h-6l1 7c-3.26-3.17-6.22-6.4-9-10l1-2c0.99 0.33 1.98 0.66 3 1v2h2l1-2 2 1c-0.33-0.74-0.66-1.48-1-2.25-1-2.75-1-2.75-1-6.75z" fill="#F7BE30"/>
 <path transform="translate(30,44)" d="m0 0c12.21 1.74 22.55 18.29 30.34 27.16 1.66 1.84 1.66 1.84 3.38 3.4 1.28 1.44 1.28 1.44 1.28 4.44l4 1c-6.28 0.48-6.28 0.48-9.44-1.62-1.96-2.98-1.88-4.88-1.56-8.38-0.88-0.21-1.75-0.42-2.66-0.64-3.96-1.61-6.14-3.92-8.84-7.11-5.95-6.78-5.95-6.78-9.19-9.87-2.31-2.38-2.31-2.38-2.31-4.38-0.64-0.29-1.28-0.58-1.94-0.88-2.06-1.12-2.06-1.12-3.06-3.12z" fill="#EEB331"/>
 <path transform="translate(83,7)" d="m0 0c10.63 3.64 15.6 12.98 20.8 22.29 1.29 2.92 1.81 5.55 2.2 8.71h-5c-0.21-0.59-0.42-1.19-0.63-1.8-3.15-8.48-7.13-16.87-14.31-22.64-1.01-0.84-2.02-1.69-3.06-2.56v-4z" fill="#7D7D7D"/>
 <path transform="translate(6,92)" d="m0 0c2.29-0.31 2.29-0.31 5 0 1.74 2.12 1.74 2.12 3.31 5 4.79 8.07 10.28 13.79 18.69 18v4c-7.33-0.46-13.37-6.91-18.26-11.93-8.74-10.39-8.74-10.39-8.74-15.07z" fill="#7B7B7B"/>
 <path transform="translate(52,22)" d="m0 0c3.59 3.49 6.8 7.14 10 11 0.64 0.61 1.28 1.22 1.94 1.86 2.22 2.31 3.77 4.65 5.44 7.39 2.17 3.52 4.41 6.83 7 10.06 2.44 3.15 3.42 5.62 3.62 9.69-5.11-4.93-9.28-10.42-13.54-16.07-1.56-2.06-3.15-4.09-4.74-6.13-1.1-1.41-2.19-2.82-3.28-4.24-0.53-0.66-1.05-1.32-1.59-2-2.93-3.83-4.54-6.6-4.85-11.56z" fill="#D28B1F"/>
 <path transform="translate(23,52)" d="m0 0c2 1 2 1 3.25 3.18 2.17 3.49 4.79 6.13 7.7 9l1.76 1.76c1.22 1.21 2.44 2.43 3.67 3.64 1.86 1.84 3.7 3.69 5.55 5.54 1.2 1.19 2.39 2.38 3.59 3.56 0.54 0.55 1.09 1.09 1.65 1.65 3.35 3.31 6.8 6.37 10.48 9.3 1.35 1.37 1.35 1.37 1.79 4.25-0.15 0.7-0.29 1.4-0.44 2.12h-5c0.99-0.33 1.98-0.66 3-1v-3c-0.3-0.05-0.3-0.05-1.8-0.32-2.52-0.78-3.57-1.69-5.41-3.56-0.58-0.59-1.16-1.17-1.76-1.78-0.61-0.63-1.22-1.26-1.84-1.9-0.63-0.64-1.26-1.28-1.91-1.94-3.63-3.72-7.15-7.51-10.49-11.5-3.27-3.65-6.94-6.95-10.53-10.29-2.51-3.01-3-4.85-3.26-8.71z" fill="#D38E26"/>
 <path transform="translate(126,46)" d="m0 0c0.99 0.33 1.98 0.66 3 1-0.99 0.33-1.98 0.66-3 1 0.02 1.26 0.04 2.52 0.06 3.81 0.05 2.83-0.14 4.44-1.06 7.19-0.07 1.83-0.08 3.65-0.06 5.48 0.01 1.08 0.01 2.16 0.02 3.28 0.03 2.27 0.05 4.53 0.08 6.8 0.04 5.92-0.12 11.58-1.04 17.44h-1c-0.06-0.69-0.11-1.38-0.17-2.1-0.25-3.11-0.51-6.22-0.77-9.34-0.08-1.09-0.17-2.17-0.26-3.3-0.04-0.51-0.04-0.51-0.26-3.13-0.04-0.48-0.04-0.48-0.24-2.91-0.3-2.22-0.3-2.22-1.3-3.22-0.07-2.35-0.08-4.71-0.06-7.06 0.01-1.29 0.02-2.58 0.02-3.91 0.02-1 0.03-2 0.04-3.03h2c0.29-0.95 0.58-1.9 0.88-2.88 1.12-3.12 1.12-3.12 3.12-5.12z" fill="#F2B829"/>
 <path transform="translate(127,101)" d="m0 0c0.16 0.5 0.16 0.5 1 3-1.29 2.58-2.49 2.86-5.06 4.12-4.39 2.36-7.42 5.15-10.82 8.74-3.7 3.74-7.74 7.22-12.12 10.14h-3v2c-7.35 2.45-16.07 1.41-23-2-0.99-1.32-1.98-2.64-3-4 3.63 0.99 7.26 1.98 11 3v2l16-2v-2c1.38-1.62 1.38-1.62 3-3h2v-2c1.63-1.06 3.31-2.04 5-3 3.2-1.96 5.63-3.52 7.94-6.5 2.69-3.27 5.28-4.61 9.06-6.5h2v-2z" fill="#E5A111"/>
 <path transform="translate(34,88)" d="m0 0h4c0.12 0.4 0.12 0.4 0.75 2.44 1.25 2.56 1.25 2.56 3.06 3.25 0.72 0.1 1.45 0.2 2.19 0.31 2.62 0.75 2.62 0.75 5 2 0.68 1.66 1.35 3.33 2 5 1.63 1.05 3.3 2.06 5 3v2h5c0.22 0.46 0.22 0.46 1.31 2.81 1.41 2.66 2.45 4.27 4.69 6.19-0.16 0.5-0.16 0.5-1 3-0.42-0.37-0.85-0.75-1.28-1.13-1.95-1.71-3.9-3.42-5.84-5.12-0.67-0.59-1.34-1.17-2.02-1.78-2.97-2.59-5.88-5.07-9.2-7.21-3.24-2.14-5.21-4.75-7.66-7.76-1.08-0.94-2.19-1.86-3.31-2.75-0.89-0.74-1.78-1.48-2.69-2.25v-2z" fill="#F3B826"/>
 <path transform="translate(118,36)" d="m0 0c2.06 0.44 2.06 0.44 4 1-1.37 2.5-1.37 2.5-3 5h-2c-0.16 1.17-0.32 2.34-0.48 3.54-0.24 1.55-0.47 3.1-0.71 4.65-0.1 0.77-0.2 1.54-0.3 2.33-0.84 5.26-2.07 8.15-6.51 11.48-3.81 0.31-3.81 0.31-7 0l-1-2c1.16-0.16 1.16-0.16 7-1 1.47-3.72 2.09-6.92 2.25-10.88 0.48-6.08 3.53-9.9 7.75-14.12z" fill="#E6A831"/>
 <path transform="translate(16,88)" d="m0 0c4.56 0.48 4.56 0.48 6.52 2.82 0.43 0.76 0.85 1.52 1.29 2.3 3.67 5.97 8.4 10.02 14.19 13.88v3c-6.97-0.99-11.71-5.22-16.1-10.55-5.1-7.08-5.1-7.08-5.9-11.45z" fill="#7B7B7B"/>
 <path transform="translate(77,15)" d="m0 0c7.1 2.33 11.58 8.42 15.44 14.62 1.7 3.68 2.23 6.38 2.56 10.38-1.8-0.09-1.8-0.09-4-1-1.25-2.21-2.26-4.3-3.25-6.62-2.85-6.24-6.02-10.42-11.75-14.38l1-3z" fill="#7E7E7E"/>
 <path transform="translate(42,47)" d="m0 0c8.74 8.63 18.01 17.84 25 28v2c-0.99-0.33-1.98-0.66-3-1v-2c-0.58-0.24-1.16-0.48-1.75-0.73-2.69-1.52-4.23-3.25-6.25-5.58-0.77-0.88-1.54-1.76-2.34-2.67-0.42-0.48-0.84-0.96-1.27-1.46-2.61-2.93-5.28-5.81-7.95-8.68-0.27-0.3-0.27-0.3-1.63-1.76-1.27-1.38-2.54-2.75-3.81-4.12l3-2z" fill="#F8EDDE"/>
 <path transform="translate(56,38)" d="m0 0c4.13 4.01 7.89 8.26 11.62 12.62 1.14 1.33 2.28 2.66 3.42 3.98 0.25 0.29 0.25 0.29 1.51 1.76 1.42 1.61 2.91 3.13 4.45 4.64l2-1-1-6c0.99 0.33 1.98 0.66 3 1 1.12 7.75 1.12 7.75 0 10-3.53 0.32-5.36 0.48-8.25-1.69-1.75-2.31-1.75-2.31-2.56-4.69-1.52-3.34-3.62-4.8-6.44-7.07-2.46-2.18-4.04-4.76-5.75-7.55l-2-2v-4z" fill="#EDB239"/>
 <path transform="translate(130,45)" d="m0 0c0 3 0 3-2 6-1.18 5-1.11 9.91-1.06 15.01 0 0.85 0.01 1.7 0.01 2.58 0.01 2.7 0.03 5.4 0.05 8.1 0.03 3.56 0.05 7.13 0.06 10.7 0.01 0.82 0.02 1.63 0.03 2.48 0.01 3.31-0.04 5.97-1.09 9.13-1.88 1.84-3.93 3.37-6 5 0.45-1.46 0.91-2.92 1.38-4.38 0.25-0.81 0.51-1.62 0.77-2.46 0.85-2.16 0.85-2.16 2.85-4.16 0.59-5.62 0.01-11.38-0.5-17-0.81-9.14-1.65-19.2 1.5-28 2.08-1.81 2.08-1.81 4-3z" fill="#EAAB1F"/>
 <path transform="translate(50,40)" d="m0 0c3.6 0.42 5.03 1.79 7.25 4.56 0.52 0.64 1.04 1.28 1.58 1.94 0.38 0.5 0.77 0.99 1.17 1.5l-2 5c-2.94-0.63-5.47-1.35-8-3-0.64-2.13-0.64-2.13-0.81-4.56-0.07-0.81-0.14-1.61-0.21-2.44 0.02-2 0.02-2 1.02-3z" fill="#FECB42"/>
 <path transform="translate(32,22)" d="m0 0c4.04-0.47 5.54-0.36 8.81 2.19 2.18 2.79 2.89 4.33 3.19 7.81l-4 3c-0.76-0.8-1.53-1.61-2.31-2.44-2.69-2.56-2.69-2.56-5.69-3.56v-7z" fill="#FECB43"/>
 <path transform="translate(35,74)" d="m0 0 2 2-1 1c-0.04 1.67-0.04 3.33 0 5h-7l-1 2-2-3-2 2c-0.36-5.33-0.36-5.33 1-7.88 3.34-1.87 6.21-1.42 10-1.12z" fill="#F8C344"/>
 <path transform="translate(116,52)" d="m0 0h3c-0.01 1.25-0.02 2.51-0.04 3.8 0 1.65-0.01 3.3-0.02 4.95-0.01 0.83-0.02 1.65-0.03 2.5 0 0.4 0 0.4-0.01 2.42 0 0.37 0 0.37-0.01 2.22 0.11 2.11 0.11 2.11 0.61 4.08 0.57 2.33 0.61 4.4 0.6 6.8-0.01 0.89-0.01 1.77-0.01 2.69-0.01 0.92-0.02 1.84-0.03 2.79 0 0.94-0.01 1.87-0.01 2.84-0.01 2.3-0.03 4.61-0.05 6.91h-2c-0.02-0.66-0.02-0.66-0.15-4-0.39-9.62-0.91-19.13-2.28-28.67-0.46-3.36-0.74-6.1 0.43-9.33z" fill="#FECB40"/>
 <path transform="translate(47,102)" d="m0 0c3.51 1.52 5.95 3.6 8.75 6.19 3.82 3.51 7.7 6.94 11.66 10.3 1.59 1.51 1.59 1.51 3.59 4.51-7.42-2.36-12.54-5.41-18-11-1.25-2.62-1.25-2.62-2-5-1.29-1.7-2.61-3.38-4-5z" fill="#D69020"/>
 <path transform="translate(134,38)" d="m0 0h1c-0.42 5.07-1.6 8.66-4.06 13.11-1.75 3.52-2.06 6.75-2.04 10.66 0.01 0.89 0.01 1.77 0.01 2.69 0.01 0.92 0.02 1.84 0.03 2.79 0 0.94 0.01 1.87 0.01 2.84 0.01 2.3 0.03 4.61 0.05 6.91-3.63-3.63-3.16-8.4-3.19-13.31 0.1-12.6 0.1-12.6 4.19-16.69 0.57-1.33 1.09-2.69 1.56-4.06 1.34-3.84 1.34-3.84 2.44-4.94z" fill="#D7942C"/>
 <path transform="translate(125,109)" d="m0 0h2c-0.83 7.37-6.84 12.21-12.16 16.91-3.76 2.95-7.14 4.92-11.84 6.09v-2c0.6-0.27 1.2-0.54 1.81-0.81 2.19-1.19 3.48-2.41 5.19-4.19 3-2 3-2 6-2 0.06-0.74 0.12-1.48 0.19-2.25 1.06-3.6 2.86-4.5 5.81-6.75 1.02-1.66 2.02-3.32 3-5z" fill="#C2771D"/>
 <path transform="translate(119,54)" d="m0 0h1c0.06 1 0.12 2 0.18 3.03 0.09 1.29 0.17 2.58 0.26 3.91 0.08 1.29 0.16 2.57 0.24 3.9 0.32 3.16 0.32 3.16 1.32 4.16 0.41 3.9 0.52 7.83 0.69 11.75 0.06 1.1 0.12 2.2 0.18 3.33 0.05 1.06 0.09 2.12 0.14 3.22 0.05 0.97 0.09 1.94 0.14 2.95-0.16 2.97-0.9 5.07-2.15 7.75-0.93-2.8-1.1-4.36-1.03-7.24 0.01-0.82 0.03-1.64 0.04-2.48 0.03-1.72 0.07-3.43 0.12-5.15 0.06-4.89-0.5-8.47-2.13-13.13-0.16-2.6-0.22-5.21-0.19-7.81v-2.06c0.05-4.99 0.05-4.99 1.19-6.13z" fill="#F9C130"/>
 <path transform="translate(125.75,33.75)" d="m0 0c4.18 0.06 7.16 0.16 10.25 3.25 0.31 3.19 0.31 3.19 0 6l-2-4c-0.28 0.56-0.28 0.56-1.69 3.37-1.99 3.54-3.54 4.18-7.31 5.63-1.81 3.13-1.81 3.13-3 6h-2c1.96-6.78 1.96-6.78 5-9 2.19-0.69 2.19-0.69 4-1l1-6h-9l-1-3c1.64-1.64 3.5-1.21 5.75-1.25z" fill="#F5BE38"/>
 <path transform="translate(97,105)" d="m0 0c1.12 1.62 1.12 1.62 2 4-0.69 3.19-0.69 3.19-2 6-0.99 0.33-1.98 0.66-3 1v2h-2v2c-17.93 0.49-17.93 0.49-23-3.62-0.33-0.46-0.66-0.91-1-1.38l2-1c2.14 0.78 2.14 0.78 4.69 1.94 5.7 2.36 9.74 3.08 15.62 0.75 2.69-1.69 2.69-1.69 4.69-4.69h2v-7z" fill="#FFCE49"/>
 <path transform="translate(113,109)" d="m0 0 2 1c-2.67 3.57-5.32 6.45-9 9h-3v2h-2l-1 3h-2v2c-5.57 1.59-10.21 2.21-16 2v-2h11v-2c1.54-1.15 1.54-1.15 3.62-2.38 0.74-0.44 1.47-0.88 2.22-1.33 0.72-0.43 1.43-0.85 2.16-1.29 4.68-2.9 8.22-6.04 12-10z" fill="#EDAF1C"/>
 <path transform="translate(35,76)" d="m0 0c3.94 0.56 5.89 2.44 8.75 5.12 0.87 0.81 1.75 1.61 2.64 2.44 1.65 1.54 3.29 3.08 4.93 4.63 0.7 0.64 1.4 1.28 2.12 1.93 0.61 0.59 1.23 1.17 1.87 1.76 0.56 0.37 1.11 0.74 1.69 1.12 0.99-0.33 1.98-0.66 3-1v3c-1.75 0.7-1.75 0.7-4 1-1.96-1.29-1.96-1.29-3.94-3.19-0.69-0.64-1.38-1.29-2.09-1.96-0.65-0.61-1.3-1.22-1.97-1.85-0.97-0.76-1.94-1.53-2.94-2.31-2.06-1.69-2.06-1.69-3.06-3.69-0.99-0.33-1.98-0.66-3-1-1.4-1.96-2.74-3.95-4-6z" fill="#E8AB2D"/>
 <path transform="translate(62,40)" d="m0 0c3.77 3.63 7.06 7.42 10.25 11.56 0.45 0.57 0.89 1.13 1.35 1.71 2.17 2.81 3.94 5.15 4.4 8.73-7.02-5.46-12.39-12.16-18-19l2-1v-2z" fill="#F8EDDE"/>
 <path transform="translate(122,112)" d="m0 0c0 3 0 3-2.44 5.5-0.84 0.83-1.69 1.65-2.56 2.5l-1 3c-5.22 3-5.22 3-8 3l-1 3c-1.98 0.33-3.96 0.66-6 1 2.26-2.34 4.28-4.19 7-6l1-3h4c0.19-0.56 0.37-1.11 0.56-1.69 2.1-3.38 5.15-5.16 8.44-7.31z" fill="#D88702"/>
 <path transform="translate(109,122)" d="m0 0c-1.87 4.58-4.74 6.38-8.93 8.79-5.49 2.16-11.28 2.18-17.07 1.21-1.91-1.54-1.91-1.54-3-3 0.46 0.02 0.46 0.02 2.78 0.11 10.15 0.22 18.36-7.11 26.22-7.11z" fill="#DC8F05"/>
 <path transform="translate(83,68)" d="m0 0c0.38 2.25 0.38 2.25 0 5-3.13 2.58-4.89 4-9 4-0.48-6.43-0.48-6.43 1.69-9 2.87-1.24 4.37-0.9 7.31 0z" fill="#FFD560"/>
 <path transform="translate(33,32)" d="m0 0c4.36 2.23 6.54 4.76 9.31 8.75 3.23 4.51 6.59 8.21 10.89 11.71 2.64 2.26 4.67 4.81 6.8 7.54l-1 2c-0.41-0.51-0.41-0.51-2.5-3.06-2.24-2.63-4.53-4.88-7.19-7.06-3.81-3.24-7.02-6.83-10.25-10.63-0.48-0.57-0.97-1.13-1.47-1.72-2.08-2.5-3.55-4.41-4.59-7.53z" fill="#E5A31C"/>
 <path transform="translate(64,90)" d="m0 0h1c0.22 1.41 0.43 2.83 0.62 4.25 0.12 0.79 0.24 1.58 0.36 2.39 0.02 2.72-0.64 4.03-1.98 6.36l-1 3c-0.35-0.62-0.7-1.24-1.06-1.88-2.63-2.88-5.21-3.27-8.94-4.12l-1-4c0.52 0.17 1.03 0.33 1.56 0.5 3.17 0.65 6.21 0.56 9.44 0.5l1-7z" fill="#FECC45"/>
 <path transform="translate(32,29)" d="m0 0c2.19 0.06 2.19 0.06 5 1 2.39 2.57 5 5.39 5 9 0.62 0.19 1.24 0.37 1.88 0.56 3.18 2.15 3.31 4.82 4.12 8.44-3.59-3.49-6.92-7.04-10-11v-2c-0.62-0.25-1.24-0.49-1.88-0.75-2.47-1.46-3.07-2.63-4.12-5.25z" fill="#F1B328"/>
 <path transform="translate(128,37)" d="m0 0 2 4c-3 2-3 2-5.44 2.75-3.43 1.68-4.61 4.04-6.56 7.25h-1c0.22-5.56 1.46-8.12 5.33-11.84 1.87-1.3 3.44-1.74 5.67-2.16z" fill="#FCCC4D"/>
 <path transform="translate(65.562 55.938)" d="m0 0c0.4 0.01 0.4 0.01 2.44 0.06 0.73 1.98 1.39 3.98 2 6l-1 2c-2.31-0.33-4.62-0.66-7-1-0.05-2-0.04-4 0-6 1-1 1-1 3.56-1.06z" fill="#FED156"/>
 <path transform="translate(24,46)" d="m0 0c0.25 0.54 0.5 1.07 0.75 1.62 2.15 4.09 4.84 7.8 7.5 11.57 1.75 2.81 1.75 2.81 1.75 5.81-1.49-1.43-2.96-2.87-4.44-4.31-0.82-0.8-1.64-1.6-2.49-2.43-2.07-2.26-2.07-2.26-3.07-5.26l-2 2v-7h2v-2z" fill="#EBAD2B"/>
 <path transform="translate(65,120)" d="m0 0c2.48 1.1 4.29 2.24 6.38 4 2.8 2.14 5.24 3.06 8.62 4v2l2 1-1 2c-3.71-1.33-6.58-2.96-9.69-5.38-0.76-0.58-1.53-1.17-2.32-1.77-2-1.86-2.96-3.35-3.99-5.85z" fill="#CC862C"/>
 <path transform="translate(67,118)" d="m0 0c1.42 0.43 2.84 0.87 4.25 1.31 0.39 0.12 0.39 0.12 2.39 0.74 2.36 0.95 2.36 0.95 4.24 2.51 2.93 1.99 5.36 1.95 8.87 2.13 1.17 0.06 2.34 0.13 3.55 0.2 0.89 0.03 1.78 0.07 2.7 0.11v1c-17.33 0.75-17.33 0.75-23-4-1.94-2.25-1.94-2.25-3-4z" fill="#F3B825"/>
 <path transform="translate(27,52)" d="m0 0c0.87 0.64 1.73 1.28 2.62 1.94 3.34 2.04 5.54 2.69 9.38 3.06l-1-4 6 5c-0.62 0.43-1.24 0.87-1.88 1.31-2.12 1.69-2.12 1.69-4.12 4.69-0.06-0.62-0.12-1.24-0.19-1.88-0.13-0.35-0.13-0.35-0.81-2.12-1.64-0.73-3.31-1.39-5-2-2.81-2-2.81-2-5-4v-2z" fill="#FCC636"/>
 <path transform="translate(72,113)" d="m0 0c0.4 0.17 0.4 0.17 2.44 1 5.26 1.48 10.34 1.74 15.56 0v4c-4.25 1.42-7.98 1.81-12.23 0.11-1.96-0.99-3.88-2.01-5.77-3.11v-2z" fill="#FFD45C"/>
 <path transform="translate(25,78)" d="m0 0c2 3 2 3 3.38 5.56 1.7 2.56 2.79 3.37 5.62 4.44v2l4 2-1 2-3-2c-0.62-0.08-1.24-0.16-1.88-0.25-3.4-1.2-5.42-3.67-7.12-6.75-0.31-3.88-0.31-3.88 0-7z" fill="#DB9621"/>
 <path transform="translate(39,77)" d="m0 0c4.04 0.51 5.95 1.46 8.77 4.38 0.66 0.67 1.32 1.35 2 2.04 0.68 0.71 1.35 1.41 2.04 2.14 0.7 0.71 1.39 1.42 2.1 2.16 1.71 1.75 3.4 3.51 5.09 5.28-4.11 0-5.7-2.18-8.5-4.88-2.78-2.62-5.32-5-8.5-7.12v-2c-0.99-0.33-1.98-0.66-3-1v-1z" fill="#F7EAD7"/>
 <path transform="translate(67,34)" d="m0 0c2.96 0.61 4.38 1.25 7 3 0.7 2.66 0.78 5.24 1 8h-2v-2l-4-1v-4h-2v-4z" fill="#FDC93F"/>
 <path transform="translate(31,57)" d="m0 0c5.55 1.98 7.51 4.91 10.48 9.7 2.14 3.24 4.68 5.67 7.52 8.3l-1 2c-1.48-1.46-2.96-2.91-4.44-4.38-0.41-0.4-0.41-0.4-2.49-2.46-2.07-2.16-2.07-2.16-3.07-4.16-0.99-0.33-1.98-0.66-3-1-4-4.34-4-4.34-4-8z" fill="#F4B82C"/>
 <path transform="translate(129,81)" d="m0 0h1c1.14 10.68 2.11 19.87-2 30-1.39-3.85-0.62-7.01 0-11 0.25-3.31 0.41-6.62 0.56-9.94 0.05-0.87 0.09-1.75 0.13-2.65 0.11-2.14 0.21-4.27 0.31-6.41z" fill="#D99528"/>
 <path transform="translate(62,16)" d="m0 0c2.5 2.31 2.5 2.31 5 5v3c0.99 0.33 1.98 0.66 3 1v3c0.99 0.33 1.98 0.66 3 1 1.69 2.06 1.69 2.06 3 4l-1 2c-1.13-0.93-2.25-1.87-3.38-2.81-0.62-0.52-1.25-1.05-1.89-1.58-2.46-2.29-3.79-4.73-5.23-7.73-1.5-2.88-1.5-2.88-3.5-3.88l1-3z" fill="#F7BE30"/>
 <path transform="translate(55,62)" d="m0 0c3.06 2.96 5.97 6.02 8.81 9.19 0.61 0.67 1.21 1.35 1.83 2.04 1.36 1.77 1.36 1.77 1.36 3.77-0.99-0.33-1.98-0.66-3-1v-2c-0.59-0.24-1.19-0.49-1.8-0.74-2.57-1.47-3.75-2.98-5.45-5.38-0.26-0.37-0.26-0.37-1.58-2.2-0.38-0.55-0.77-1.11-1.17-1.68l1-2z" fill="#F7ECDC"/>
 <path transform="translate(86,51)" d="m0 0c2.76 1.38 3.46 3.37 5 6 4.17 4.17 10.42 5.52 16 7v1c-7.75 0.12-7.75 0.12-10-1v-2c-1.09-0.27-2.19-0.54-3.31-0.81-5.04-1.63-5.04-1.63-6.69-4.19-0.69-3.19-0.69-3.19-1-6z" fill="#FCC635"/>
 <path transform="translate(112,47)" d="m0 0h1c0.57 6.88-0.52 11.03-4 17h-7l-1-2c1.09-0.02 2.19-0.04 3.31-0.06 3.69-0.94 3.69-0.94 5.57-4.06 1.19-3.56 1.74-7.15 2.12-10.88z" fill="#DC981D"/>
 <path transform="translate(55,16)" d="m0 0v7h2l2 6-3-2v-2l-5-1c-0.19-2.88-0.19-2.88 0-6 3-2 3-2 4-2z" fill="#E8AA30"/>
 <path transform="translate(78,54)" d="m0 0c0.99 0.33 1.98 0.66 3 1 0.88 6.15 0.88 6.15 1 8-1 1-1 1-3.56 1.06-0.81-0.02-1.61-0.04-2.44-0.06l-2-4h4c1.25-2.49 0.78-3.41 0-6z" fill="#E5A527"/>
 <path transform="translate(30,44)" d="m0 0c4.17 0.52 6.25 1.71 9.31 4.56 0.7 0.64 1.4 1.28 2.12 1.94 0.52 0.5 1.03 0.99 1.57 1.5l-2 2c-0.72-0.76-1.44-1.53-2.19-2.31-2.52-2.41-4.83-3.95-7.81-5.69l-1-2z" fill="#EEB336"/>
 <path transform="translate(121,34)" d="m0 0c8.73-0.46 8.73-0.46 13.12 1.12 1.88 1.88 1.88 1.88 2.19 5.07-0.1 0.93-0.2 1.85-0.31 2.81l-2-4c-0.33 0.49-0.33 0.49-2 3v-6h-12l1-2z" fill="#EFBB53"/>
 <path transform="translate(39,20)" d="m0 0 2 2c-3.48 1.16-5.46 0.71-9 0 0.06 1.11 0.12 2.23 0.19 3.38-0.06 1.19-0.13 2.39-0.19 3.62l-3 2c-0.49-7.4-0.49-7.4 1.62-10 3-1.26 5.16-1.35 8.38-1z" fill="#EEB94D"/>
 <path transform="translate(42,87)" d="m0 0c3.27 0.56 4.83 1.5 7 4l-1 3c-2.87-0.57-3.86-0.86-6-3v-4z" fill="#FECC42"/>
 <path transform="translate(72,50)" d="M0 0 C6.94 4.22 6.94 4.22 8 8 C7.71 9.34 7.38 10.68 7 12 C5.82 10.57 4.66 9.13 3.5 7.69 C2.85 6.89 2.2 6.09 1.53 5.26 C0 3 0 3 0 0 Z " fill="#CF871D"/>
 <path transform="translate(67,53)" d="m0 0c3.8 1.49 5.66 3.69 8 7l1 3 5 1v1c-3.53 0.32-5.36 0.48-8.25-1.69-1.81-2.38-2.74-4.51-3.75-7.31l-2-3z" fill="#EFB530"/>
 <path transform="translate(115,121)" d="m0 0 1 2c-5.75 3-5.75 3-8 3l-1 3c-1.98 0.33-3.96 0.66-6 1 3.71-4.56 8.79-6.57 14-9z" fill="#CE7D02"/>
 <path transform="translate(32,22)" d="m0 0c2.88-0.19 2.88-0.19 6 0l2 3h-3v-2c-0.33 0.16-0.33 0.16-2 1l1 6-4-1v-7z" fill="#F9C43D"/>
 <path transform="translate(58,72)" d="M0 0 C0.46 0.41 0.92 0.82 1.39 1.24 C2 1.78 2.62 2.32 3.25 2.88 C3.85 3.41 4.46 3.94 5.08 4.49 C6.97 5.98 8.81 7 11 8 C4.68 8.49 4.68 8.49 1.56 6.25 C0 4 0 4 0 0 Z " fill="#F9C235"/>
 <path transform="translate(35,65)" d="m0 0c3.77 0.55 5.19 1.97 7.56 4.88 2.06 2.48 4.12 4.87 6.44 7.12l-1 2c-2.17-2.14-4.34-4.29-6.5-6.44-0.62-0.61-1.24-1.22-1.88-1.85-0.59-0.58-1.17-1.17-1.78-1.77-0.27-0.27-0.27-0.27-1.65-1.63-1.19-1.31-1.19-1.31-1.19-2.31z" fill="#E9A71E"/>
 <path transform="translate(62,53)" d="m0 0c2.06 0.25 2.06 0.25 4 1l1 2-4 1-1 6-2-1c-0.12-3.38-0.12-3.38 0-7l2-2z" fill="#FCC942"/>
 <path transform="translate(47,102)" d="m0 0c3.71 1.58 6.3 3.91 9.25 6.62 0.89 0.82 1.78 1.64 2.7 2.48 0.34 0.31 0.34 0.31 2.05 1.9-3 0-3 0-6-2h-2c-1.05-1.64-2.04-3.31-3-5-0.98-1.35-1.98-2.68-3-4z" fill="#DF980F"/>
 <path transform="translate(43,102)" d="m0 0c4.83 0.41 6.83 2.46 10 6l-1 3c-1.5-1.31-3-2.62-4.5-3.94-0.84-0.73-1.67-1.46-2.53-2.21-0.65-0.61-1.3-1.22-1.97-1.85v-1z" fill="#D69332"/>
 <path transform="translate(126,70)" d="m0 0h1c2.46 6.62 2.19 13 2 20h-1v-10h-2v-10z" fill="#E29D1A"/>
 <path transform="translate(54,73)" d="m0 0c2.06 0.44 2.06 0.44 4 1v5h-4c-0.38-1.66-0.71-3.32-1-5l1-1z" fill="#FFD154"/>
 <path transform="translate(115,47)" d="m0 0h1c0.11 2.08 0.19 4.17 0.25 6.25 0.05 1.16 0.09 2.32 0.14 3.52-0.46 3.81-1.44 4.89-4.39 7.23-0.99-0.33-1.98-0.66-3-1 0.32-0.27 0.32-0.27 1.92-1.61 2.54-2.92 2.83-4.84 3.33-8.64 0.15-1.08 0.3-2.16 0.45-3.27 0.1-0.82 0.2-1.64 0.3-2.48z" fill="#F8C340"/>
 <path transform="translate(70,52)" d="m0 0c3.79 1.49 5.77 3.62 8 7l-1 3-8-8 1-2z" fill="#F4E3CA"/>
 <path transform="translate(32,29)" d="M0 0 C3.15 0.34 4.61 0.58 6.81 2.94 C8 5 8 5 8 7 C4.6 5.99 3.24 5.35 1.19 2.38 C0.8 1.59 0.4 0.81 0 0 Z " fill="#F4BA32"/>
 <path transform="translate(76,35)" d="m0 0c2 1 2 1 2.94 3.44 1.06 2.56 1.06 2.56 4.06 4.56v2c-2.38-0.19-2.38-0.19-5-1-1.86-3.28-2-5.17-2-9z" fill="#F4BA28"/>
 <path transform="translate(63,90)" d="m0 0h1c0.04 2.33 0.04 4.67 0 7-1 1-1 1-4.56 1.06-1.14-0.02-2.27-0.04-3.44-0.06v-3h6l1-5z" fill="#F6BE34"/>
 <path transform="translate(27,54)" d="m0 0c3.37 2.21 5.2 4.39 7 8v3c-1.18-1.07-2.34-2.16-3.5-3.25-0.65-0.6-1.3-1.21-1.97-1.83-1.53-1.92-1.53-1.92-1.53-5.92z" fill="#E8A61C"/>
 <path transform="translate(35,76)" d="m0 0c4.38 0.51 6.82 3.18 10 6-3 1-3 1-6 0-1.4-1.96-2.74-3.95-4-6z" fill="#E9AA29"/>
 <path transform="translate(66,105)" d="m0 0c0.99 0.33 1.98 0.66 3 1 1.69 3.56 1.69 3.56 3 7-3.16-1.37-3.99-1.99-6-5v-3z" fill="#FFD45C"/>
 <path transform="translate(52,91)" d="m0 0c0.62 0.17 1.24 0.33 1.88 0.5 2.12 0.5 2.12 0.5 4.12 0.5h2v3c-1.75 0.69-1.75 0.69-4 1-2.25-1.31-2.25-1.31-4-3v-2z" fill="#E3A83A"/>
 <path transform="translate(61,70)" d="m0 0c2.99 1.1 3.85 1.68 5.25 4.62 0.25 0.79 0.5 1.57 0.75 2.38-0.99-0.33-1.98-0.66-3-1v-2l-4-2 1-2z" fill="#F1DEC3"/>
 <path transform="translate(59,29)" d="m0 0h3c2.25 2.31 2.25 2.31 4 5l-1 3-1-3-2-1c-2-1-2-1-3-4z" fill="#F1B52B"/>
 <path transform="translate(59,31)" d="m0 0c3.99 2.05 6.1 3.89 8 8l-1 2c-2.6-2.47-4.86-5.12-7-8v-2z" fill="#DF9917"/>
 <path transform="translate(68,24)" d="m0 0c0.33 0.16 0.33 0.16 2 1v3c0.99 0.33 1.98 0.66 3 1 1.69 2.06 1.69 2.06 3 4l-1 2c-5.78-4.18-5.78-4.18-6.88-8.31-0.04-0.89-0.08-1.78-0.12-2.69z" fill="#F1B523"/>
 <path transform="translate(76,127)" d="m0 0 4 1v2l2 1-1 2c-0.83-0.33-0.83-0.33-5-2v-4z" fill="#CE851E"/>
 <path transform="translate(77,49)" d="m0 0c0.83 0.16 0.83 0.16 5 1v4c-0.83-0.33-0.83-0.33-5-2v-3z" fill="#FDCF54"/>
 <path transform="translate(79,37)" d="m0 0c2.62 1.05 3.79 1.65 5.25 4.12 0.25 0.62 0.5 1.24 0.75 1.88l-5-1-1-5z" fill="#E7A72A"/>
 <path transform="translate(25,78)" d="m0 0c1.78 2.67 2.88 5.03 4 8l-2 2c-2.43-3.64-2.16-5.71-2-10z" fill="#E09E2A"/>
 <path transform="translate(96,60)" d="m0 0c0.44 0.24 0.44 0.24 2.69 1.44 2.88 1.36 5.19 2.1 8.31 2.56v1c-7.47 0.37-7.47 0.37-10-1.38-1-1.62-1-1.62-1-3.62z" fill="#F4BA29"/>
 <path transform="translate(91,34)" d="m0 0c0.99 0.33 1.98 0.66 3 1l1 5-4-1v-5z" fill="#717171"/>
 <path transform="translate(125,109)" d="m0 0h2c-0.5 3.69-1.1 5.6-4 8-1-3-1-3 0.31-5.69 0.56-0.76 1.12-1.52 1.69-2.31z" fill="#CC8420"/>
 <path transform="translate(34,88)" d="m0 0h4c2 3 2 3 2 6-2 0-2 0-4.12-1.88-1.88-2.12-1.88-2.12-1.88-4.12z" fill="#F0B322"/>
 <path transform="translate(69,42)" d="m0 0 4 1 2 7c-4.88-4.62-4.88-4.62-6-8z" fill="#EFB22B"/>
 <path transform="translate(50,35)" d="m0 0c1.98 0.66 3.96 1.32 6 2v4h-2v-2l-4-1v-3z" fill="#F1B629"/>
 <path transform="translate(108,126)" d="m0 0h2c-0.12 1.88-0.12 1.88-1 4-3.06 1.25-3.06 1.25-6 2v-2c0.64-0.29 1.28-0.58 1.94-0.88 2.06-1.12 2.06-1.12 3.06-3.12z" fill="#BE7018"/>
 <path transform="translate(68,73)" d="m0 0h2v5l-5 1v-2h3v-4z" fill="#DB971C"/>
 <path transform="translate(68,47)" d="M0 0 C2.38 0.25 2.38 0.25 5 1 C6.31 3.06 6.31 3.06 7 5 C4 5 4 5 1.81 3.06 C0 1 0 1 0 0 Z " fill="#D59128"/>
</svg>
