<?xml version="1.0" encoding="UTF-8"?>
<!-- Generator: visioncortex VTracer 0.6.12 -->
<svg width="144" height="144" version="1.1" xmlns="http://www.w3.org/2000/svg">
 <path transform="translate(0)" d="m0 0h144v144h-144v-144z" fill="#DC2020"/>
 <path transform="translate(0)" d="m0 0h144v144h-144v-144zm4.69 27.5c-0.25 0.29-0.25 0.29-1.49 1.78-2.62 3.75-2.34 7.39-2.38 11.82 0 0.72-0.01 1.44-0.02 2.18-0.02 2.38-0.03 4.76-0.04 7.14 0 0.81-0.01 1.63-0.01 2.47-0.02 4.31-0.04 8.63-0.05 12.94-0.01 4.44-0.04 8.89-0.08 13.33-0.03 3.43-0.03 6.86-0.04 10.28 0 1.64-0.01 3.28-0.03 4.92-0.17 15.97-0.17 15.97 4.45 22.64 3.95 3.66 6.39 5.12 11.71 5.15 1 0 1.99 0.01 3.01 0.02 1.1 0 2.19 0 3.32 0.01 0.57 0 0.57 0 3.48 0.02 3.82 0.02 7.64 0.03 11.46 0.04 1.3 0 2.61 0.01 3.95 0.01 6.18 0.02 12.36 0.03 18.54 0.04 7.13 0.01 14.26 0.04 21.39 0.08 5.52 0.03 11.03 0.04 16.55 0.05 3.29 0 6.58 0.01 9.87 0.03 3.68 0.03 7.36 0.03 11.03 0.02 1.09 0.01 2.17 0.03 3.29 0.04 6.36-0.05 10.21-0.74 15.4-4.51 4.27-4.55 4.15-9.33 4.16-15.32 0.01-0.73 0.01-1.46 0.02-2.21 0.01-2.42 0.02-4.83 0.02-7.24 0.01-1.68 0.01-3.36 0.02-5.04 0.01-3.53 0.02-7.05 0.02-10.58 0.01-4.5 0.03-9.01 0.06-13.51 0.02-3.48 0.02-6.95 0.02-10.43 0.01-1.66 0.01-3.32 0.03-4.98 0.01-2.33 0.01-4.65 0.01-6.98 0-0.34 0-0.34 0.02-2.06-0.04-4.98-1.14-8.3-3.38-12.65-4.39-4.27-8.81-6.25-14.93-6.26-0.48 0-0.48 0-2.92-0.02-0.53 0-0.53 0-3.18 0.01-1.11-0.01-2.22-0.01-3.37-0.02-3.68-0.01-7.36-0.01-11.03-0.01-2.56 0-5.12-0.01-7.67-0.01-5.36-0.01-10.72-0.01-16.08-0.01-6.19 0.01-12.37 0-18.56-0.02-5.96-0.02-11.92-0.03-17.88-0.02-2.54 0-5.07-0.01-7.6-0.02-3.54-0.01-7.08 0-10.62 0.01-1.05-0.01-2.09-0.02-3.17-0.03-7.2 0.06-12.55 1.05-17.3 6.9z" fill="#FEFCFC"/>
 <path transform="translate(92.371 43.734)" d="m0 0c0.41-0 0.41-0 2.49-0.01 0.85 0.01 1.7 0.02 2.58 0.03 0.84-0.01 1.69-0.02 2.56-0.03 4.44 0.02 7.97 0.19 12 2.28v9c-1.48 0.03-2.96 0.07-4.49 0.11-1.94 0.06-3.88 0.13-5.82 0.2-0.98 0.02-1.96 0.04-2.96 0.07-0.94 0.03-1.88 0.07-2.84 0.1-0.44 0.02-0.44 0.02-2.62 0.08-2.71 0.52-3.58 1.3-5.27 3.44-1.74 3.48-1.23 7.41-1.25 11.25-0.02 0.84-0.04 1.69-0.06 2.56-0.04 5.18 0.47 8.68 3.31 13.19 2.16 2.16 7.2 1.72 10 2v-18h12v26c-5.44 2.17-9.21 2.36-14.94 2.37-0.88 0.03-1.76 0.05-2.67 0.07-5.66 0.03-8.92-0.65-13.39-4.44-7.12-7.44-7.34-14.16-7.31-24-0.02-1.07-0.04-2.14-0.05-3.24-0.01-6.66 0.34-11.49 5.04-16.59 0.58-0.47 1.16-0.94 1.76-1.42 0.57-0.48 1.15-0.96 1.74-1.46 3.38-2.41 6.01-3.55 10.19-3.56z" fill="#ECE8E8"/>
 <path transform="translate(52.188 43.75)" d="m0 0c1.01 0.01 2.02 0.01 3.06 0.02 7.44 0.08 7.44 0.08 9.75 1.23v9c-1.36 0.06-2.72 0.12-4.12 0.18-1.77 0.09-3.54 0.17-5.31 0.26-0.9 0.04-1.8 0.08-2.73 0.12-0.42 0.02-0.42 0.02-2.58 0.12-0.79 0.04-1.59 0.08-2.4 0.11-1.86 0.21-1.86 0.21-2.86 1.21-0.23 1.68-0.41 3.37-0.56 5.06-0.14 1.63-0.29 3.26-0.44 4.94h20v9h-20c0.07 0.9 0.07 0.9 0.44 5.44 0.08 1.01 0.16 2.02 0.25 3.06 0.31 2.5 0.31 2.5 1.31 3.5 1.33 0.14 2.67 0.23 4 0.28 0.81 0.04 1.61 0.08 2.44 0.11 0.85 0.04 1.69 0.07 2.56 0.11 1.67 0.07 3.34 0.14 5 0.22 0.74 0.03 1.49 0.06 2.25 0.09 1.75 0.19 1.75 0.19 2.75 1.19 0.14 1.81 0.14 1.81 0.13 4 0 0.36 0 0.36 0.01 2.19-0.14 1.81-0.14 1.81-1.14 2.81-3.72 0.31-7.45 0.28-11.19 0.31-1.04 0.03-2.08 0.06-3.15 0.09-6 0.05-10.11-0.03-14.66-4.4-2.87-4.67-3.45-8.66-3.43-14.03-0.01-0.76-0.01-1.51-0.02-2.29 0-1.58 0-3.17 0.01-4.76 0-2.41-0.02-4.83-0.06-7.24 0-1.55 0-3.1 0.01-4.65-0.01-0.71-0.03-1.43-0.04-2.17 0.07-5.08 1.38-7.93 4.53-11.86 4.62-4.19 10.31-3.37 16.19-3.25z" fill="#EDEAEA"/>
</svg>
