<?xml version="1.0" standalone="no"?>
<!DOCTYPE svg PUBLIC "-//W3C//DTD SVG 20010904//EN"
 "http://www.w3.org/TR/2001/REC-SVG-20010904/DTD/svg10.dtd">
<svg version="1.0" xmlns="http://www.w3.org/2000/svg"
 width="144.000000pt" height="144.000000pt" viewBox="0 0 144.000000 144.000000"
 preserveAspectRatio="xMidYMid meet">
<metadata>
Created by potrace 1.16, written by Peter Selinger 2001-2019
</metadata>
<g transform="translate(0.000000,144.000000) scale(0.100000,-0.100000)"
fill="#000000" stroke="none">
<path d="M0 720 l0 -720 720 0 720 0 0 720 0 720 -720 0 -720 0 0 -720z m670
655 c0 -8 -6 -14 -12 -12 -10 1 -13 -80 -11 -383 1 -212 -2 -421 -6 -465 -5
-52 -9 -65 -10 -37 -1 39 -3 42 -21 32 -11 -6 -20 -7 -20 -2 0 5 9 21 20 35
25 31 26 48 3 40 -16 -6 -16 -4 1 15 18 21 18 22 1 22 -15 0 -16 3 -7 12 18
18 15 36 -7 43 -19 6 -19 30 -2 45 4 3 12 17 18 33 11 24 11 27 -7 27 -12 0
-20 7 -20 16 0 11 6 15 18 12 15 -4 18 2 20 40 2 57 -5 68 -31 45 -19 -17 -20
-17 -14 0 4 11 1 17 -9 17 -9 0 -12 5 -8 11 5 8 -3 10 -24 7 -19 -3 -28 0 -26
7 3 6 -2 19 -10 30 -14 18 -15 -15 -16 -303 l0 -323 -41 -82 c-22 -45 -50 -97
-61 -114 -11 -18 -21 -41 -22 -50 -2 -10 -10 -19 -19 -21 -15 -3 -15 0 -3 35
7 21 23 55 34 75 21 36 21 49 22 502 0 304 -3 467 -10 471 -5 3 -10 -2 -10
-13 0 -10 -12 -29 -26 -43 -47 -43 -101 -124 -133 -198 -17 -40 -28 -77 -25
-82 4 -8 -17 -14 -38 -10 -10 1 -7 -69 4 -75 4 -3 5 -10 2 -16 -15 -23 -15
-87 -1 -141 8 -32 12 -57 7 -57 -30 0 -45 258 -20 340 1 3 6 -4 11 -15 8 -17
8 -16 3 5 -9 37 -6 64 6 68 5 2 8 8 4 13 -16 26 103 194 179 252 34 26 35 26
31 4 -2 -12 2 -6 10 13 l13 35 6 -35 c4 -19 8 -53 11 -75 2 -22 8 -56 13 -75
5 -19 5 -57 1 -85 -15 -88 -29 -705 -17 -705 4 0 16 20 28 45 20 43 21 59 21
434 0 303 3 390 12 393 9 3 5 19 -14 54 -14 27 -41 78 -60 114 -19 36 -40 65
-46 66 -27 2 -32 4 -32 14 0 6 63 10 170 10 144 0 170 -2 170 -15z m210 -107
c87 -27 159 -69 226 -131 63 -59 88 -93 78 -108 -8 -14 -54 29 -54 52 0 9 -8
19 -17 23 -18 6 -76 44 -103 68 -39 34 -156 71 -237 76 -70 4 -83 7 -83 22 0
9 3 20 7 23 10 11 113 -3 183 -25z m-213 -661 c-1 -116 -2 -21 -2 213 0 234 1
329 2 212 2 -116 2 -308 0 -425z m-127 289 c0 -3 -4 -8 -10 -11 -5 -3 -10 -1
-10 4 0 6 5 11 10 11 6 0 10 -2 10 -4z m70 -70 c0 -10 -28 -7 -35 4 -11 18 5
31 21 16 8 -8 14 -17 14 -20z m-28 -358 c-7 -7 -12 -8 -12 -2 0 6 3 14 7 17 3
4 9 5 12 2 2 -3 -1 -11 -7 -17z m628 -46 c0 -5 -7 -9 -15 -9 -8 0 -12 4 -9 9
3 4 9 8 15 8 5 0 9 -4 9 -8z m-30 -109 c0 -10 -5 -25 -10 -33 -8 -12 -10 -11
-10 6 0 19 -7 23 -52 27 -29 4 -71 2 -93 -2 -38 -8 -38 -9 25 -11 36 -1 75 -1
88 0 12 1 22 -3 22 -9 0 -5 -14 -9 -32 -9 -18 1 -34 -4 -36 -10 -2 -7 -9 -12
-15 -12 -6 0 -19 -7 -29 -17 -10 -9 -21 -13 -25 -9 -4 4 -1 11 6 15 9 6 1 11
-23 15 -20 4 -36 11 -36 16 0 6 -8 10 -17 10 -14 0 -15 2 -5 9 18 11 -37 18
-163 21 -55 1 -102 3 -104 6 -2 2 111 4 252 4 238 0 257 -1 257 -17z m-100
-133 c0 -5 -2 -10 -4 -10 -3 0 -8 5 -11 10 -3 6 -1 10 4 10 6 0 11 -4 11 -10z
m-26 -25 c3 -8 1 -15 -4 -15 -6 0 -10 7 -10 15 0 8 2 15 4 15 2 0 6 -7 10 -15z"/>
<path d="M600 956 c0 -2 7 -9 15 -16 12 -10 15 -10 15 4 0 9 -7 16 -15 16 -8
0 -15 -2 -15 -4z"/>
</g>
</svg>
