<?xml version="1.0" standalone="no"?>
<!DOCTYPE svg PUBLIC "-//W3C//DTD SVG 20010904//EN"
 "http://www.w3.org/TR/2001/REC-SVG-20010904/DTD/svg10.dtd">
<svg version="1.0" xmlns="http://www.w3.org/2000/svg"
 width="144.000000pt" height="144.000000pt" viewBox="0 0 144.000000 144.000000"
 preserveAspectRatio="xMidYMid meet">
<metadata>
Created by potrace 1.16, written by Peter Selinger 2001-2019
</metadata>
<g transform="translate(0.000000,144.000000) scale(0.100000,-0.100000)"
fill="#000000" stroke="none">
<path d="M0 720 l0 -720 720 0 720 0 0 720 0 720 -720 0 -720 0 0 -720z m392
69 c3 -197 3 -201 27 -220 30 -25 82 -24 114 2 l27 20 2 197 3 197 58 3 57 3
0 -201 c0 -217 -5 -243 -54 -292 -55 -54 -207 -62 -278 -15 -63 42 -73 79 -76
290 -2 104 -1 195 2 203 4 10 22 14 60 14 l54 0 4 -201z m682 178 c18 -19 35
-73 80 -256 31 -128 56 -237 56 -242 0 -5 -27 -9 -60 -9 -57 0 -60 1 -66 28
-3 15 -10 44 -15 65 l-10 37 -74 0 -73 0 -14 -62 -13 -63 -63 -3 c-57 -3 -63
-1 -58 15 3 10 26 106 51 213 69 298 69 298 178 299 48 1 62 -3 81 -22z"/>
<path d="M975 878 c-13 -42 -41 -188 -37 -193 8 -8 102 -6 102 2 0 4 -10 52
-22 105 -20 91 -33 116 -43 86z"/>
</g>
</svg>
