<?xml version="1.0" encoding="UTF-8"?>
<!-- Generator: visioncortex VTracer 0.6.12 -->
<svg width="144" height="144" version="1.1" xmlns="http://www.w3.org/2000/svg">
 <path transform="translate(0)" d="m0 0h144v144h-144v-144z" fill="#D92B40"/>
 <path transform="translate(0)" d="m0 0h144v144h-144v-144zm4.69 27.5c-0.25 0.29-0.25 0.29-1.49 1.78-2.62 3.75-2.34 7.39-2.38 11.82 0 0.72-0.01 1.44-0.02 2.18-0.02 2.38-0.03 4.76-0.04 7.14 0 0.81-0.01 1.63-0.01 2.47-0.02 4.31-0.04 8.63-0.05 12.94-0.01 4.44-0.04 8.89-0.08 13.33-0.03 3.43-0.03 6.86-0.04 10.28 0 1.64-0.01 3.28-0.03 4.92-0.17 15.97-0.17 15.97 4.45 22.64 3.96 3.68 6.41 5.12 11.75 5.15 1 0.01 2 0.02 3.04 0.03 1.1 0 2.2 0.01 3.34 0.01 1.16 0.01 2.32 0.02 3.52 0.03 3.85 0.02 7.7 0.04 11.55 0.05 1.31 0.01 2.63 0.01 3.98 0.02 5.52 0.02 11.04 0.04 16.56 0.05 7.91 0.02 15.81 0.05 23.72 0.11 5.56 0.04 11.12 0.06 16.68 0.06 3.32 0 6.64 0.02 9.96 0.05 3.71 0.03 7.41 0.03 11.12 0.02 1.1 0.02 2.19 0.04 3.32 0.05 5.6-0.04 9.75-0.37 14.12-4.1 4.23-4.82 4.78-10.24 4.74-16.39 0.01-0.75 0.02-1.5 0.02-2.28 0.02-2.46 0.02-4.93 0.01-7.4 0.01-1.72 0.01-3.44 0.02-5.17 0.01-3.6 0.01-7.21 0-10.81-0.02-4.62 0-9.23 0.03-13.84 0.02-3.56 0.02-7.12 0.02-10.67 0-1.7 0-3.4 0.01-5.1 0.02-2.38 0.01-4.76-0.01-7.14 0.01-0.7 0.02-1.39 0.03-2.11-0.07-4.97-1.46-7.76-4.53-11.62-4.09-3.7-8.44-5.25-13.93-5.26-0.48 0-0.48 0-2.92-0.02-0.53 0-0.53 0-3.18 0.01-1.11-0.01-2.22-0.01-3.37-0.02-3.68-0.01-7.36-0.01-11.03-0.01-2.56 0-5.12-0.01-7.67-0.01-5.36-0.01-10.72-0.01-16.08-0.01-6.19 0.01-12.37 0-18.56-0.02-5.96-0.02-11.92-0.03-17.88-0.02-2.54 0-5.07-0.01-7.6-0.02-3.54-0.01-7.08 0-10.62 0.01-1.05-0.01-2.09-0.02-3.17-0.03-7.2 0.06-12.55 1.05-17.3 6.9z" fill="#FEFCFC"/>
 <path transform="translate(77,45)" d="m0 0h13l1 21c0.85-1.52 1.7-3.03 2.57-4.59 8.98-15.22 8.98-15.22 13.47-17.4 4.12-0.82 7.97-0.16 11.96 0.99-1.28 3.51-2.76 6.3-5 9.29-0.58 0.77-1.16 1.55-1.75 2.35-1.21 1.62-2.42 3.24-3.64 4.85-0.57 0.78-1.15 1.56-1.74 2.36-0.53 0.7-1.05 1.4-1.59 2.12-1.38 2.19-2.15 3.45-2.28 6.03 1.36 2.63 1.36 2.63 3.4 5.57 0.73 1.06 1.45 2.12 2.2 3.22l2.34 3.33c1.51 2.19 3.02 4.38 4.52 6.58 0.68 0.96 1.36 1.93 2.06 2.93 1.48 2.37 1.48 2.37 1.48 4.37-5.18 1.5-10.06 2.52-15 0-6.08-6.59-10-15.06-14-23l-1 23h-12v-53z" fill="#ECE7E8"/>
 <path transform="translate(25,45)" d="m0 0h12c0.02 1.13 0.04 2.26 0.06 3.42 0.08 4.2 0.16 8.4 0.26 12.6 0.04 1.81 0.07 3.63 0.1 5.44 0.05 2.61 0.11 5.23 0.17 7.84 0.01 0.81 0.02 1.62 0.03 2.45 0.11 4.17 0.47 6.44 2.38 10.25h12c1.07-4.29 1.23-8.31 1.32-12.7 0.02-0.84 0.04-1.68 0.06-2.54l0.18-8.01c0.05-1.81 0.09-3.63 0.13-5.44 0.11-4.43 0.21-8.87 0.31-13.31h12c0.07 5.41 0.13 10.82 0.16 16.22 0.02 1.84 0.04 3.68 0.07 5.51 0.03 2.66 0.05 5.31 0.06 7.96 0.02 0.81 0.03 1.62 0.05 2.46 0 6.92-1.14 12.55-6.09 17.73-6.6 4.31-13.53 5.01-21.25 4.12-5.92-1.76-9.54-4.97-13-10-0.89-2.76-1.12-5.24-1.11-8.13v-2.42c0-0.86 0.01-1.71 0.01-2.59s0.01-1.76 0.01-2.67c0-2.82 0.01-5.63 0.03-8.44 0-1.91 0.01-3.82 0.01-5.73 0.01-4.67 0.03-9.35 0.05-14.02z" fill="#ECEAEA"/>
</svg>
